<mxfile host="app.diagrams.net" modified="2021-02-17T14:06:09.359Z" agent="5.0 (Macintosh; Intel Mac OS X 11_2_1) AppleWebKit/537.36 (KHTML, like Gecko) Chrome/88.0.4324.150 Safari/537.36" etag="b4Ig53GEQzdqKEAEQbey" version="14.3.2" type="github">
  <diagram id="rW7Kie8J-Dy5d98ck3IQ" name="Page-1">
    <mxGraphModel dx="1426" dy="769" grid="1" gridSize="10" guides="1" tooltips="1" connect="1" arrows="1" fold="1" page="1" pageScale="1" pageWidth="827" pageHeight="1169" math="0" shadow="0">
      <root>
        <mxCell id="0" />
        <mxCell id="1" parent="0" />
        <mxCell id="OKhfb2b17zBWEA9jVU_0-16" value="" style="rounded=1;arcSize=10;dashed=0;fillColor=none;gradientColor=none;strokeWidth=2;" vertex="1" parent="1">
          <mxGeometry x="80" y="350" width="200" height="100" as="geometry" />
        </mxCell>
        <mxCell id="OKhfb2b17zBWEA9jVU_0-17" value="" style="dashed=0;html=1;shape=mxgraph.aws3.cloud;fillColor=#F58536;gradientColor=none;dashed=0;" vertex="1" parent="1">
          <mxGeometry x="100" y="330" width="52" height="36" as="geometry" />
        </mxCell>
        <mxCell id="OKhfb2b17zBWEA9jVU_0-18" value="" style="group" vertex="1" connectable="0" parent="1">
          <mxGeometry x="80" y="540" width="200" height="120" as="geometry" />
        </mxCell>
        <mxCell id="OKhfb2b17zBWEA9jVU_0-5" value="" style="shape=image;verticalLabelPosition=bottom;labelBackgroundColor=#ffffff;verticalAlign=top;aspect=fixed;imageAspect=0;image=data:image/jpeg,/9j/4AAQSkZJRgABAQAAAQABAAD/2wCEABQUFBQVFBcZGRcfIh4iHy4rJycrLkYyNjI2MkZqQk5CQk5Cal5yXVZdcl6phXZ2hanDpJukw+zT0+z///////8BFBQUFBUUFxkZFx8iHiIfLisnJysuRjI2MjYyRmpCTkJCTkJqXnJdVl1yXqmFdnaFqcOkm6TD7NPT7P/////////CABEIBAAEAAMBIgACEQEDEQH/xAAbAAEAAgMBAQAAAAAAAAAAAAAABQYDBAcBAv/aAAgBAQAAAAC5gAAAAAAAAAAAAAAAAAAAAAAAAAAAAAAAAAAAAAAAAAAAAAAAAAAAAAAAAAAAAAAAAAAAAAAAAAAAAAAAAAAAAAAAAAAAAAAAAAAAAAAAAAAAAAAAAAAAAAAAAAAAAAAAAAAAAAAAAAAAAAAAAAAAAAAAAAAAAAAAAAAAAAAAAAAAAAAAAAAAAAAAAAAAAAAAAAAAAAAAAAAAAAAAAAAAAAAAAAAAAAAAAAAAAAAAAAAAAAAAAAAAAAAAAAAAAAAAAAAAAAAAAAAAAAAAAAAAAAAAAAAAAAAAAAAAAAAAAAAAAAAAAAAAAAAAAAAAAAAAAAAAAAAAAAAAAAAAAAAAAAAAAAAAAAAAAAAAAAAAAAAAAAAAAAAAAAAAAAAAAAAAAAAAAAAAAAAAAAAAAAAAAAAAAAAAAAAAAAAAAAAAAAAAAAAAAAAAAAAAAAAAAAAAAAAAAAAAAAAAAAAAAAAAAAAAAAAAAAAAAAAAAAAAAAAAAAAAAAAAAAAAAAAAAAAAAAAAAAAAAAAAAAAAAAAAAAAAAAAAAAAAAAAAAAAAAAAAAAAAAAAAAAAAAAAAAAAAAAAAAAAAAA8egAAMWlo62DG9y5tna3s3oAAAAAAAAAAAAAB8RkVHaOH635+f9AAacFCx/wAAB7tzE1LfQAAAAAAAAAAAAB8REDD4QFhunoAR1VhfAAAbdmsX2AAAAAAAAAAAAGtXK9rAAvsyAYqlXPAAABMX4AAAAAAAAAAAA1avXvgABYroA06JoAAABt9A2wAAAAAAAAAAAMVWreMAATd7A0KBrgAAA6FKAAAAAAAAAAAA8gajrAAAsdzBrc81QAAAJ66ZAAAAAAAAAAABqU2GAAAXawB5QYgAAAAkbzuAAAAAAAAAAAeQNOwgAAHR98K5TAAAAAzXeZAAAAAAAAAADHTIAAAAfXUMgxc1wAAAAA9tlpAAAAAAAAAANGi6IAAAbXTAq9RAAAAAZOo+gAAAAAAAAAQtIxAAAAkuiDzmuoAAAAPbdN1mudOzgAAAAAAAAB5Wqh4AAABMX4RXPgAAAAS1pq0TbbSAAAAAAAAAPKhWQAAACbvYp9ZAAAAAe+ffQZIAAAAAAAAB80qAAAAAE1fDznOgAAAAAGz0LbAAAAAAAAB8UeEAAAACV6B6xcv8AAAAABvdA2AAAAAAAAB8UeEAAAABvdH9RvOwAAAAAEnfsoAAAAAAAD5o0IAB9ZsuT7+/fXnz8fHxjxY2Xp/0gKQAAAAAAS98+wAAAAAAAeUmAADJt7OYAA9+ceG+Z1WqQAAAAAAm7z9AAAAAAABT6yAM2/sgAACzyKt1zXwAADPgAAAE/dvQAAAAAACsVAA9ktsAAAE3Oq9EPNfV1vkAFr1a8AAALJcfQAAAAAAISi+AMktkAAAA3bWrkUDX1dX5APu/RdV+AAAC02z0AAAAAAI/nuMBkmPoAAAB9XHLXIoA1dPXAZb1uVmC1wAAHStwAAAAAAYOd6gD2ZyAAAACxykBDgBj0tPwH1Z7T7oR2lgwPvN5F6YB703YAAAAAAPmhw4BJbgAAAAb9og4QADzS0vgG1aZ/IA8ja3BfILJcgAAAAABVamAZZkAAAAHtwjoD33315558gaWh8g2J+dkfQGpVq/8mfpGcAAAAAAiaB4ASW4AAAB7mz7ObPu/fz9fT6fLz4xYcOtrauP50dHwC+TQA0apE57hMAAAAAAGHnOqAJz6AAAfWzt7e1s/foAAB5r6OhHReoCbvYAPHoAAAAAApEAAPuc8AAGTc3d3a+/QAAAAfEfB13EPvp2UAAAAAAAAQdFADYlgAPrc39/a+gAAAAAPNesVz4L3NgAAAAAAAGDnGuAG1KADPvyG99+gAAAAAAatUr/lnt4AAAAAAABSq8ADZlQe7EjI7f0AAAAAAABF0zJ0MAAAAAAABFc/8ABmmfDYk5La9AAAAAAAAD5qtr9AAAAAAAB887jwAPZ3NJSe56AAAAAAAAAAAAAAAAAFbpoAH1M2iR+gAAAAAAAAAAAAAAAAAMPNsAAbthn9kAAAAAAAAAAAAAAAAAAVGrgH1M2SW9AAAAAAAAAAAAAAAAAADW5tjAz2Gx7YAAAAAAAAAAAAAAAAAACnVoG7ZZ/KAAAAAAAAAAAAAAAAAAAa3NfgSVomvoAAAAAAAAAAAAAAAAAAAKjVyVtMv6AAAAAAAAAAAAAAAAAAADFzPFKWuXAAAAAAAAAAAAAAAAAAAAKxAWyZ9AAAAAAAAAAAAAAAAAAAAETKfQAAAAAAAAAAAAAAAAAAAAAAAAAAAAAAAAAAAAAAAAAAAAAAAAAAAAAAAAAAAAAAAAAAAAAAAAAAAAAAAAAAAAAAAAAAAAAAAAAAAAAAAAAAAAAAAAAAAAAAAAAAAAAAAAAAAAAAAA88x4/rL9egAAAAAAAAAAAa+uAZc+QA0AAD528wDFBQkbh89+9qXnJT0ABo/LzNtjDr7wAAAAAABWaeAMkjYZ76BzLWAALtYAeVyqYABKXCSABq81+Tc6R9NSE93JkAAAAAABWqcABI3jdDmeqAAXawBhpEMAB9XWfAHlUqoXyaQ+DV35oAAAAAABWaeAA2eh7Q5nqgAF2sAw0GNAAZeiboA+Oaa4TF+YIHJtS4AAAAAACs08AAmr4OZ6o9AC7T55Q4YPqXlthrxsNj9vc0AEBSAe9H3nzjzAAAAAAAFZp4ukwfGhWooOkbxzPVJG//AEA89+vortLCZuO4DXqG5awA857GAWS5AAAAAAAAVmni9zYfNBiRb7Ocz1SS6IAA+Oa6wsdy9AePQAjedjZ1jL03IAAAAAAACs08XyaBCUQWO5nM9Uk+hgAIKjCT6D9AAACk182LrQhcbKAAAAAAACs08XyaBGc8E/dzmeqSXRAAFIgBf5cAAAa/NPgtFs5xpG90f0AAAAAAAKzTxfJoFepQs1wOZ6ptWIAs/wBjm+iZ+nehERgDZsIFVqZ70nbrVPF+mAAAAAAAArNPF7mw1efagu8+cz1QAOoZjzl+Il7+CoVgBIdGB8811SZvrBzP4Jq+AAAAAAABWaeLTJnzG17AMvS8xzPVAA6hmPnlvyTl6BT6yAkeiggqML5NFIgD3pO4AAAAAAAKzTwAC3Wgcz1QAOoZjzl2MmL8CoVgBI9FBz6KNrpX0RnPBZ7eAAAAAAAKzTwAE/dvRzPVMkgAX3Kec20za6YCFjBBaZI9FCP5yN6VHkB8GbpmQAAAAAAArNPABmtVl9DmeqSfQwAFGgh0WRAFEhCR6KFLroABdLEAAAAAAAVmnjJ9HufemJzMBzPVJPoYACvUoTd69AKJCEj0UYOaYwADf6N6AAAAAAArNPF7mg9AHM9UkuiAAMXNMIt9m9AUSEJHooq9RAADoEsAAAAAAArNPF8mgADmeqSXQ/QAFXqIWa15QYaDGkj0U+ebahszYD4rwnLz6AAAAAABWaeL5NAAHM9U+9oALHZj559GBsTsnn+NWLhsQkeikJRBbbSA857GHvStsAAAAAACs08XyaAAOZ6oABarYNfnumAAJu9lAiD76XsAFepQtNtAAAAAAArVOF8mgADmeqAAWq2BrUWMAATV3ytHm4nrwAMfM8Jn6Z9gAAAAAArNPF7mwADmeqAAWq2A+KzV8QA2bXYfSm1sdBlQB5T60LtYAAAAAAAaEWJfcAAIDGAASMkAwwMLH4D62pKamcgQGM+rB6AGrDDbmAAAAAAAAAAAAAAAPPj5+cv2AAAAAAAAAAAAAAAAAAAAAAAAAAAAAAAAAAAAAAAAAAAAAAAAAAAAAAAAAAAAAAAAAAAAAAAAAAAAAAAAAAAAAAAAAAAAAAAAAAAAAAAAAAAAAAAAAAAAAAAAAAAAAAAAAAAAAAAAAAAAAAAAAAAAAAAAAAAAAAAAAAAAAAAAAAAAAAAAAAAAAAAAAAAAAAAAAAAAAAAAAAAAAAAAAAAAAAAAAAAAAAAAAAAAAAAAAAAAAAAAAAAAAAAAAAAAAAAAAAAAAAAAAAAAAAAAAAAAAAAAAAAAAAAAAAAAAAAAAAAAAAAAAAAAAAAAAAAAAAAAAAAAAAAAAAAAAAAAAAAAAAAAAAAAAAAAAAAAAAAAAAAAAAAAAAAAAAAAAAAAAAAAAAAAAAAAAAAAAAAAAAAAAAAAAAAAAAAAAAAAAAAAAAAAAAAAAAAAAAAAAAAAAAAAAAAAAAAAAAAAAAAAAAAAAAAAAAAAAAAAAAAAAAAAAAAAAAAAAAAAAAAAAAAAAAAAAAAAAAAAAAAAAAAAAAAAAAAAAAAAAAAAAAAAAAAAAAAAAAAAAAAAAAAAAAAAAAAAAAAAAAAAH//EABgBAQADAQAAAAAAAAAAAAAAAAABAgME/9oACAECEAAAAAAAAAAAAAAAAAAAAAAAAAAAAAAAAAAAAAAAAAAAAAAAAAAAAAAAAAAAAAAAAAAAAAAAAAAAAAAAAAAAAAAAAAAAAAAAAAAAAAAAAAAAAAAAAAAAAAAAAAAAAAAAAAAAAAAAAAAAAAAAAAAAAABMyiIAAAAAAAm97IwgGmlgKZ0AAAAAATroCmAtvIAc9QAAAAAnXQBXnL7gApgAAAAAF9pAM8U9EgAUxgAAAABtoAGWTbQAArzgAAAAnewAMc3UAAY6YQAAAAJ6JAAwpfcAAK84AAABbeQAGOe2gAAKYAAAAW3kEgGOW9wAAM8QAAAnokJSAZ8/TICEgDLIAAAdFhKQAry9N4IDK1wBjmAAA3uJkABzbXCIGeaS2kmOYAAGmwTIAREZLQlabIKYwNNY5wAALdATIIRWlawAC97yxzAAAAdFgmSFKUqAAA01rgAAABpsCSmdIAAAA1yAAABPSBXOkAAAAAAAABtoIzzgAAAAAAAACekrnmAAAAAAAAANtK5UAAAAAAAAACdsqgAAAAAAAAAAAAAAAAAAAAAAAAAAAAAAAAAAAAAAAAABIQEgIC9ilQEoAAAAt0BGeR1AOeq21gpjAbaOZekAAAFugCmDqAc9bbyrE2rzhPSY52qAAALdDnhro5o6mOYHRaMKlogNdSOYAAAFuhzQnpYU6mOYLdDCgAdM47MKAAABboc0L7uevUrAwabRzG0jAvvHNtpTAAAALdCkTdHM6gOVrrXnOixHMdFssrdDnqAAALdAK4Q6mdRm02cpabaxzLdCpZniAAALdDJEUHUxzBPSyyF945m2gDmgAAAt0OaAOpnUKRrqzzidbxzT0sqjaccwAAC3Q5oA6gHPVvcDPHXWOYNtI5gAACdmMAbgMqmmlkVzo2mmYTsxgAAAAAAAAAAAAAAAAAAAAAAAAAAAAAAAAAAAAAAAAAAAAAAAAAAAAAAAAAAAAAAAAAAAAAAAAAAAAAAAAAAAAAAAAAAAAAAAAAAAAAAAAAAAAAAAAAAAAAAAAAAAAAAAAAAAAAAAAAAAAAAAAAAAAAAH/8QAGQEBAQEBAQEAAAAAAAAAAAAAAAECBAMF/9oACAEDEAAAAAAAAAAAAAAAAAAAAAAAAAAAAAAAAAAAAAAAAAAAAAAAAAAAAAAAAAAAAAAAAAAAAAAAAAAAAAAAAAAAAAAAAAAAAAAAAAAAAAAAAAAAAAAAAAAAAAAAAAAAAAAAAAAAAAAAAAAAAAAAAAAAAAAgoAAAAAABIl0BJALaAAAAAAkgLoSQANgAAAAAZgBsmQAXQAAAAATIAujAAC6AAAAAMwANVmAAF0AAAABmAA1WAADU0AAAADMAA1ZkAALoAAAAmQCoNXMAABdAAAAMwTn5/LzjW/T16ffMAAAugAAAZg4uHAA6vr/K10e9CwANUAAAZhPl8wANfe+L4tdXZ7DUgA1QAAGYPmcgAD7Hz+cPbt6qtBIaoAAEyPL4wAG/XsYGMeU7usugkaAAAYDg4AG+j39/bQAZ8PP29GqAAAAzA+ZyC9HT0+wAAERoAAACZB8zkvV19OgAAAJQAAAMAc86tAAAAAAAABmBqgAAAAAAAAGC2gAAAAAAAADMtoAAAAAAAAAM2gAAAAAAAAAAAAAAAAAAAAAAAAAAAAAAAAAAAAAAAAAAAAACBQAAAAAYBdGAGxmBdAzG0oAAAmQLpgBswUl0DBqygAACZbMxthqgZjVAEyXQAAAJlsYauGqCZaoAZmstUAAAJlsmW2FDSZbMhomW8y6AAACZUi6YA2mbozBszNWZbAAACZBdGFoqZbIZbMKRdAAACZWlGGqBhqiZbZgDYAAAmWwGFoVMrSRthoMtUAAAmWwGAGqzALqZugzLoAAAZaAZAaEkLaytBloAAAAAAAAAAAAAAAAAAAAAAAAAAAAAAAAAAAAAAAAAAAAAAAAAAAAAAAAAAAAAAAAAAAAAAAAAAAAAAAAAAAAAAAAAAAAAAAAAAAAAAAAAAAAAAAAAAAAAAAAAAAAAAAAAAAAAAAAAAAAAAAAAAAAAAD//xAA/EAABAwIBBgsGBgICAwEAAAABAgMEAAURBhIgITFTExYiMDI0QEFQUXIQFBU1QlIzYHFzgZEjYUNiY5KwkP/aAAgBAQABPwD/AOt5nJHeKx7Kt5lvpuJTTl3gN7XqXlFETsQo0rKVP0s0cpHu5lNHKSX9grjJM8hQyklbtFJylc72RScpG+9mkZQwztQoU3ebev8A5abmRndSH0UDj+WFuNtjFawn9TT95gs/XnGnspN0zTl+nr2LCaXPmL2vKrh396v+6TKkp2PL/umL3PZ+vOFQr9HfIQ8MxVAggEHEc/InRY34joqRlGnYw1T93nPbXCBSnHF9JZPOAlOsEimbhMY6DyqZyjkD8ZAXUe9Qn/rzDSVpWMUkEeY/KS3EIGKlACpN8hsakErNSL/Ld1NgIFOPvOnFbijzNnu647gZeOLRrbzky5xYg5SsVfaKl3yU/iG+QilKUs4qJJ7HHnSoxxbdNQ8okL5ElOB+6m3W3UBSFBQPePyc/Ljxk4uuAVKyi2iOj+TT8yTIOLjpPO2OWZMMJUeW3q5p11tlBW4oJSKn35bmLcbkp+6lEqJKiSez2dU8yAIyiB9dD8lyZkeKnF1wCpmUDi8Uxxmjzpx1x1RUtZUf98/k27my3G/vRzMyazDbK3D+gqdcH5qyVnBHcntEOG7NeDbY9RqHDahshtsfqfyU680ygrcWEip2UBOKI3/tTjrjyipxZUew5PfM2/QeYnTmoLJWvb9KalSnZbpccV2m0x2mITWZtWkKJ/JJIFT74zHxQzy11Jlvyl5zqyex5NtYyXXPtRpypLcVlTrh1Cpkt2Y+pxZ/QdqtV4MQBp3W3TbqHkBaFBST+R5UxiIgqdXU+8vyiUo5DfZcnWs2Gpf3r0iQASTgBV3uBmPlKT/iRs7ZAuUiCvkklHemoc1iY2FNq/UfkW43tqPi2xy3KffdkLK3FlRPZrY3wUCOj/ppX+fwLQjoPLXt7cxIdjOBxpZBFW27szEhCyEO/kJ15tlBW4oJSKuV7ckYtsclvs6E560p8yBTac1tA8kjRedSy0txZwCRjUl9cl9bq9qj28FSSCk4EVa73jmsSf4X+QJs9iE2VLOvuTU64PzV4rOCe5PaIKM+bHT/AOQaWUUvBCIyTt1q8BZODzXrTQ8eud3bhgoRynaefdkOFbiypR7TZ051xY0SQkEnYKnSDKluu9xOrtoBUQBtJqBYGwkLk61fbQgQwMOARV+jRI4a4JGatRoHAg+RxqK6HozKx3oHjt1vQaxZjnFfeqlKKiVKJJO09qsQxubX6HRvMj3eA55r5I7dsqHeZkUgZ2ejyNQ7xFlaicxfkavb/Dz1+SAE+zJ6cCgxVn0eNkgAknACrteSvFiMeT3q7Zk98zR6To5SP4uss+QzvANlEknE+xtxbS0rQcFJOINW2eicwDscT0x4ypSUJKlHADaaut4VJJZYODXbbB80a9J0bo9w099X+8B4JElOxHkutmoctqYyHEH9R4utaW0laiAkbTV1uy5ai01qaHbrIrNubB0H18Gy6v7UE0o5ylK8yT4LAnuwXgtPR+pNRpDclpLrZxB8VWtLaSpRASNpq63VctRbbJDQ7JjWPNW1eZPjevQu7nB259X8eD225OQHfNs9IUy82+2lxtQKSPE1KShJUogADWau11VLWWmiQ0OeCFq2JJpMV5XcBQgr710IKO9RoQ2R50IrH217uz9grgGfsFcAz9gr3Zn7KMRnyowmfM0YKe5ZowVdy6MR4eRosup2oNEEbQaxphWY+0ryWDSTikHzA9uUSiICB96/CLTdFwXc1RJaVTbiHEJWggpIxB8RJABJOAq8XUySWGTg0OcQ0450U0iF96qRHZRsTWzYOwEA7QKLDKtqBSoTZ2Eioys5ho/9R7cplciMjwm0XUxFhp3W0aSpK0hSSCCMQfELzds8mMwrk/WebajuO7BgPM03FaRrPKPZ7YvPipH2nD231pDq2grypUH7V0qM8nuxogjaCOwIiyHGlOobJQNp7PZ7sYygy8cWjSSCAQcQfDr1deDBjMHlfUeaSlS1ZqRiaZiJRgV6z2m0OfiN+28fjo9HtKUq2gGlxGlbNVLhuDokGlIWjpJI53J2YjNXEX+qKvFpLCi+wMWztHZ7NduBIjvnkfSaBBHhl3uYiN8G2f8AKqiSokk4k8y00t1WCf5NNNIaTgn++1W9zg5SP96vbdusp9GkQDtpcVlfdgaXCcHRINKQpB5SSOabcU0tK0HBSTiDVtuDU9nBXTA5SauVhzs52L/KKcbW0opWkpI7j2ay3bAiM+fQrwu4z0QWCs9M9EU664+4pxw4qUeZaaU6vAbO80hCW0hKRq7WCUkKHcaaWHG0LHePZdusI9HMkAjAgGnIbSujyTS4zqO7Ecyw+5HcDjasFCrbdmZqQlXJdqTBiykEOoBNSsnXUa2FhVPRZDBIcaUOyYkaxUB0vRGFnaUeEyZDcZlbrhwCanTHJr6nF/wOZSlS1BKdppppLSAkfye22p3PYKD9J9l4H+Zv0c4tltzpJpyEoa0HGlJUjUoEaaVKQQpJIIqBfyAGpX8Kpt1t1IU2oKB8qUhKxgpINPWmC9tZANO5Nx/odIpeTT30PA0cnJ9GxT/tTXwKf9goWCee5NDJyb3lNLydmgckpNPwJbHTZVzSUKWoISMSo4CojXAx2m/tSPCFKCQSTgBV3uRmO5iPwkc1DZzEZ52q2dutz3BSEjuVq9l4Gto88pKVjBSQachA62z/ABS21tnBSSNONNkRFYtLIqHf2XMEvjMNNuNupzkLCh/rmSARgRUq0wpO1sJPmKl2CSzipk54paFtqKVpIPkdPJ+DwjpkrHJR0fCb7ctsVo+s80y3wrqU9209vBIII7jUd0PMoWO8Vdxi00fJXszVeRrg1/Ya4J37Ff1XAu7tX9VwLu7VXBO/Yr+q4Nz7FVmqHcdMgKGBANOQgdbZwpaFtnBQw02JUiOQWnCKjZRuJ1Ptg1HusF/Y6AaBBAI5mTBjSkkOtg/7qbk++0Ctg56aWhaFFKkkHyOhGjrkvoaRtUajsIjMoaRsSPCLrPEJg7xWpNKUVqKlHEk4k81CRghS+9XagknYDSYz6tjaqTbpSvppNpdO1YFJtCfqcNC1Rx3qNMsIYRmI2UttDgwUARQYZGxtNBtH2isxP2is0eQrNFZorNHlWan7RXBt/YKLDJ2tpowox2tilWyKdiaXaGvpWaVaHPpWKXbZSPopTLqOkhQ9ikpUMFAEU7C72z/FEKScFDA8xY5RkQgknlNnDm5dvjS04OIGPmKl2GSySWuWmlRZKTgWVimbbNfICWTVrtSIIK1cp0+EPvtx2luuHBKRUyWuZIW6v+B5Dm205jaE+Q7KELVsSTSIUlexs0i0vHpKApFoaHSWTSIEZH0UlltOxArDsxSDtApcSO5tbFOWlo9BRTTlskI2YKp6OTyXWzTsRaMSjlDTsMngZnB9zg50pSdqRWHhBq+XH3h3gGzyEc20nOdQP90ewoacX0UE03bZK9oCabtCfrcpu3xkfRjSW0J6KQPAFIQsYKSDT1sYXrRyTUuyubQP5FPMOsKwWk6LbhacQ4NqVA0y4HWm3BsUkHxW9XD3Vjg0H/IvnIgxkJ55KFK6KSabt8lz6cKbtA+tdNwYzexFBCU7AB4O/EYfSQ4gGpuTy0cuMcR9tONONKzXEFJ0LC/wsAJ72zm+KSH0R2VurOpIqVJXKfW6vvPOQ/x/45tuO850UGmrU8rpqCaatkdG0FRpDTaByUgeGyIceUgpdbBqdYXmcVsctNEFJIIII9mTTwDz7R70+Jmr9P4Z33dB5COdhn/OP05hqI+70UGmrSra4umoMdrYigANg8SnWuNMBJTmr+4VNt0mErlpxT3KqzO8FcWD56vE7tOEOMd4vUmiSSSdZPOxzmvo0Wor7vRbNNWg7XF01DjtbEUAB4s4224goWkKBqVZlRn2pEbWgLBKKBxA8RUoJSVE4ADE1c5pmylL+gak88DmqSfI1jjrpth108hBNM2lZ1uKwpmDHa2IxNAAfmy/zuCaEZB5S9vPIQtwhKElR/1UaxS3ta8GxUe1sMoSFcsikpSkYAAfm595DDS3V7EjGpMhcp9x5e1R5yNbpck8ho4eZqLk6ga310xEjxxg22kfnHKGbiRFQf8Aa+aShSzglJJ8hUWxS38CvkJqLZocf6M9XmaCQkYAAD85SpCY0dx1WxIp11bzq3FnWo48wxGfkHBpsqqJk6TgZK6jwo0YYNtAfnXKGZnuCMk6k61aca3ypR5DZw8zUTJ9hvBT5zzTbTbSc1CAkfnaW+mNHceVsSKccU64txRxUo4nRiWqXL2IzU+ZqJY4rGBc5a6SlKRgAAPzxlFLxUiKPUvQiWiXK+nMR5molliRsCRnroADUB+eX3UstLcVsSkmn3lPvOOq2qVj7IdplyyDm5iPM1Ds8WLrKc9fmaA/PeUUvMaRHG1es1DtkqWeQjBP3GoVlixsCsZ66AAGA/Pvwpt2UuRI5ZPRHcBSUJSAEgAf/psVJG0gV7xHB5TyB/Ne+xN+ihLinY+j+6S42o6nE/3+S35TMYAurCQaF1gd71C627f0Lrbt/Qutu39C627f0Lrbt/Qutu39C627f18Vgb+k3CCrY+mkutr6K0nml3OEhSkl4Ag0Lrbt/Qutu39C627f0Lrbt/Qutu39C627f0Lrbt/Qutu39C627f0Lrbt/Qutu39C627f0Lrbt/Qutu39fFYG+FMSGpCCtpQI5l15plOc4sJFScoY7eplBXT99nO7FhApcqQ4eU6o0VE7SfZiaDridi1CmrlNa6LyqYykkD8ZAXUa8QpOAz8xXkaBB1jn3LlDbWUKdAUKF1t2/r4rb9/XxWBvqYmxZCs1pwFWi9IZZGLiwmm7lCcOCXhWOOvw3KX8Bj182l11HRWoUxeZzP15wqHf47pCXhmGkLStIUkgg6c3rkn91XYMnepK9emSEgknACp9+baxRH5Svup+S/IUVOuE83Cu8uGRgsqT5GoNzjTQAFZq/tPOzHxGjOun6RS1KWtS1bVEk6ECSYktp3yOukkKAI2Ee2ZJEWOt0j9B5k1IR7qwmXJRwry1jUdicaU83wjbMyElCXNQUKjqcgy0xVqKmnfwye7w3KXq7Hr56Dc5EJYKTijvSahTmJrQW2dfenSm9dk/uq7Bk71I+vSefbYbU44oBIq43d6WShBKWueStSFBSSQRVlubsoFp1GJR9fOZRy/w4w9StKxyuHhhB6ber23joRT9AkJzqv/U2/wB5NESX7jHYnKAAAUgDYo1dsSuCE9IyB4blL1dj18/Eluw3kutmocpuWwl1GjN67J/dV2DJ3qSvXovvNsNKccVgkVcbi7Od8mx0U8+ww5IdS02MVKNQITcJgNp2/UebWsNoUtWxIJNS3zJkOun6laVjme6zkA9Beo+2RHRJYW0vYRT5/wASIk8KAQsFLqdhAqbJt0lLfLUpbZBTmDXUVh5+QJcgYYDBpHl4blL1dj19gsk4xZIbUeQ5ozeuyf3VaOaryNYK8jWCvI1gryNYK8jWCvI1gryNYK8jWCvI1gryNZqvI1k7iIK/XoEgAk1eLkZbxbQf8SNJCFrOCElR8hUexzXgCoBAprJlva49QyeheaqOT0L/AHTmTbX0PGn7BMa1oIXTrLrKs1xBSfYASQAMSas9tENoOLH+VfOX+VwMUNA8p3TBIII2irdKEuI0534YK9qkpUMFAEUlhlBxS2kH9PDspersevRscdhyAhS2kk5xr3KLuU17lF3Ka9zi7lFKt8NW1hNP2GE7jmAoNT7RJhcrpI89HHAgirbI95hsud+GB0JvXZP7qtC0gG4xgQCM6uAZ3SP6osx9yiizH3KKLMfcoosx9yiizH3KKLMfcoosx9yiizH3KK4BjdI/qizH3KKSlKBglIA8hoX+fwLQjoPLXpW+zvy+WvkNVFgxoqQG0DTfisSUlLqAauVkcjYuMcturHbNkp5PoFDmzV3le9TVn6UclPMZOysx5cc7F6x4llL1dj16Ng+XI9R0lJStJSoAg1d4HuUjk/hr1p0cmncWX2vI6E3rsn91WhaPmUX1c+4tLaFLUcAkEmpchUqS48rvOjZ7Rw+D745HcKSAkAAYAcyQDQAA1DnLrK91huL+o6k6L0VxhphxWx0EjQZdUw8h1O1JBpl1DzLbidikg+I5S9XY9ejk/wDLUes6d+ZDkBa92QdHJtWEp5Pm3oTeuyf3VaFm+aRPXz9/kcFDzBtcOjaoJmyQD+GjWqkpSlISkYADADs+UMrhZQYSdTWhFYVJkNND6lVd4SXbeUoGtoAp0cnZeeyuOTrR4jlL1dj16OT/AMtR6zp3j5bJ9Ojk515f7WhN67J/dVoWf5nF9fP5RPZ8tLfchGjZonu0JH3r5R7PKfTHjuOq+lNOLU6tS1HWoknQyci8tySfSmiAQQdhq4xjEmOtd2OI0LdKMSY053Y4GgQQCNh8Qyl6ux69HJ/5aj1nTyikBuKGe9w6OTSCXn1+SdCb12T+6rQhyPdZTT+GOYa4zDcVxlG4rjKNxXGUbiuMo3FcZRuK4yjcVxlG4rjMNxTa89tCvMA6Nyc4SfIP/fQitcPJZb+5YFAAAAbBpXK6iAttPB52cK4yjcVxlG4rjKNxXGUbiuMo3FcZRuK4yjcVxlG4qJfxIfQzwPT5jKOVyW4w9StAAqISNZJwFQIwixWmu8DX7Mo4mc03JH0alaNll+8wkgnlt8k+IZS9XY9ejYPlyPUdKVLZiNlbqqmy1zH1Or/gaOTrBRDLm8VoTeuyf3Vc6aj/AIDXoToGnlZzzh81nQsSAu5M6eU34sf0czavmEf1aalBCVKVsAxNTZBlSnXT3q0LHF4eaFHot8r2yWUvsONq2KSRTjamnFtq2pJGhYpfu8wIJ5DvJ8Qyl6ux69G03WJFhpacJxBr49A81V8egeaqF+geaqN/gj7zT+UatjLVSJL8lee6sqOiy0p91DSRiVKAphpLDLbSdiUgaE3rsn91XOmo/wCA16E6Cuir9DS+mv1HQye+Yj0HTyl/Fj+nmbV8wj+rTv0vgIeYDyndGxxeAhhRHKc16GUMXgpQeA5LmgCUkKG0HEVAkiVEad7yNfh+UvV2PX2CwW8oHvTg9GjN67J/dVzpqP8AgNehOgaeGa84PJZ0LEoJuTf+0kaeU34sf0czavmEf1ad4le8zV/ajkjQhRzKlNNeZ10lISkJGwDAaF2i+9QnE/UnlDRyclZrjkZXfrT4flL1dj18/abQuQpLz4waFAAAADADRm9dk/uq0GWlvuJbbGKlbBXwa4bqvg1w3VfBrhuq+DXDdV8GuG6r4NcN1Xwa4bqvg1w3VGzXDdUykpabB2hAB0bijg50hP8A30ILvAzGHO4LFDSulqXPW2oOBOaK4rv74VxXf3wriu/vhXFh7fip8MwpBZKsSBoWr5hH9Wlc5Qiw3V95GCaxJOJ0IM5UFxS0IBJFcZJW6RXGOVu0VxklbpFcZJW6RXGOTukU4rPcUvADE44DQjvKjvtup2oUDTLiXW0OJ2KAI8Oyl6ux6+dZYefUEtNlRq32FLZDknWftoAAAAYDSm9dk/uq0LN80ievn8oGSiaF9y0aNrlCVCaX9QGCubyg+ZL9OhavmEf1aWUMrhH0MA6m+wZPSuEjrYO1vw7KXq7Hr0UsurGcltRHmBXu0jcr/qvdpG5X/Ve7SNyv+qEWSf8AhX/VIts5exhVNWCavpZqaj5PR0YF1RXTTDLKcG0BI5ib12T+6rQs3zSJ6+fyij8JEQ6NrZ0bJOEV/g1nkOc3lB8yX6dC1fMI/q0ZLyWGHHVbEpJp1xTzi3FbVKJ7BbJXusxtfceSqhr8Nyl6ux69GwfLkeo1gPIVgPIVgPIVgPIc5N67J/dVoWf5lF9XPvNJeaW2oalJIp9lUd5xpW1J0bNdwtIjvq5X0K5rKD5kv06Fq+YR/Vo5RysG0Rk9+tXYrNL95hI+9HJPhuUvV2PXo5P/AC1HrPYJvXZP7qtCz/M4vr7BlBBKkiUgevR2Vbb6WwGpOtP300828gKbWFDTefZYTnOLCRV1kty5inG+joWr5hH9WgohIJOwCp8kypbrvcTgNCJFclvpZRtNcW5O+TXFqTvk1xak75NcWpO+TXFqTvk1xak75NcWpO+TXFqTvk05k7JQhauFScBo2GXwEvgyeQ74blL1dj16OT/y1HrPYJvXZP7qtBtxbSwtBIUNhr4jN36q+Izd+qviM3fqr4jN36q+Izd+qviM3fqr4jN36q+Izd+qviM3fqr4jN36q+Izd+qrBJffMjhXCrQWhK0qSoYgjA1dIC4L53StaDpMSn4ysWnCmmMo3k6nmwqm8oYR6QWK+OQPvNG/QB3qNOZRsDoNE0/f5bmpsBFOvvPqxcWVHRtXzCP6tC+yuAhlAPLc0cnIuCHJB79Seau0UxZzqfpVyhoJUUKCknWDiKhSBJitOjvHhmUvV2PXo5P/AC1HrPYJvXZP7quwZM7ZOjKjNSmVNOJqbCehPFCxq7ldhscN56Uh7Y2jQvcr3iaoJPIb5I0EIU44hCRiVEAVGYTHYbaGxKeayhil2Ml4bWtHJyXgXIyvUnwzKXq7Hr0cn/lqPWewTeuyf3VdgyZ2ydKVFZltFt1NT7Y/CV9zfcrn7ZZ3ZZC3AUNU002yhLbaQEj23GSIsR1zvwwFEkkk7Tt0LBF4WWXTsb5t1tLra21bFAipDKmH3GlbUqI0Iz6o77bo+lVNrS42haTiFAEeF5S9XY9ejk/8tR6z2Cb12T+6rsGTO2TprQhxJSoAg9xqfYASVxf/AEp1h1hRS4gpPNx4kiSoBpsmoFhaZwW/y10AAAAMBoZRSs95EdOxGs6Nni+7QkAjlL5R5zKKLmOtyBsXqOjk/K4WMWTta8LnwGp6EJWSM01xci7xdcW4u9XXFuLvV1xci7xdQoiITAZQSQD2B2wRnXXHCteK1E1xbi7xdcW4u9XXFuLvV1xbi71dcW4u9XXFuLvV1xbi71dcW4u9XXFuLvV1xbi71dcW4u9XXFuLvV1xbi71dcW4u9XXFuLvF1AtrUAuZiic/mXmGH05rjYVUnJ1hetlZRT1jnNbEBQpcSS30mViilQ2pP8AVYHyrA+RpLTitiFH+Kbt813osKpnJ6Wv8QhAqNYIjOBXyzSG0NjBCQBpPWBh51bi3VkqNcW4u9XXFuLvV1xbi71dIydioWlWeo0ABq5yZEbmMKZcri3F3i64txd6uuLcXerri3F3q6hWhqE9wrbivy4Ug7QKXHjHa0kmjCiAa2k40IsYbGU0G2xsbSKwA/8Ara//xAApEQACAQIFBAMBAAMBAAAAAAABAgAQEQMTIDFREjAyQCFBUGEicJBx/9oACAECAQE/AP8ArTYzobidDTLadDTpbj8wAmDDMGGssOJYQopjKVOoC8GHzAoHYKKYUI/HCkwYYGtxddKqWgAHbJtGNz+IATFQDfst4nQi37rgkfiKhO8AA7WIfioFzaAADvMgMII/A3ipbfuYn1XDHxf0GAI98Ak2EVQvdxN6AXMHfYPF8ReMLE+6qloAB3sTyphj59J16h7iqWgAA7+JuKYex9N1v/77SqWMAt3rUxRtRPEeo6X+R7AFzaAAD0cQf40TxHZYkCAgi47bp9j11XpHpEXBFE8R2iChuIMQHt4igfPqothf1HFmieI7bYYO0sywO0zGmY0zGgxORAQdGIfm3qIv2fTLDmda8x2Vor9ItM3+TN/kzf5M3+TNHEzFgdT9z4ltBwwYRY20jE5gIMZgB6ir1HUOySBDiLDinidbS57lzA7CDEH3AQdjXEHzf21XpGoabw4iiHFP0IWY/fqjEP3AQY4uvtYa/fZuBDiCHEMJJ9kEiB7gg+yBc2gFtZdRDiE7S5P6yLYX0kgbmHE4hYn9hRc20FgIcQn9vDFhehcCFyf3FFyBCwWFyf3gbf7EseJY8Sx4ljxLHVY8Sx4ljxLHiWPEseJY8Sx41BGMy/7MsczL/sKMOzY8Sx9pPIaiAY2HxCLVHYbyNVUtAoGpkBhFjbVhiwvUixtB8mDaH6PrJ5DsOtxeo27DeRoq9RgAAqXUTMWda0ZrCE30gXIGjEH3S4hN/WTyFWJuZc8y55iPf4NWFiaDamJv2FFhQkARmJ0BisJub6sMbnQwuCPZTyFW8jVdxXE8qDamJvrQXYVdrnuAWAFHb/IfyCjix9hPIVbyNUW5vVzdjQbUKg7zoWdCzoWdC8Vw9zQmwOhVUqJ0LOhZ0LCi20YYuaE2F6YZuLUcXHsJ5CpQGZawItWNhUbdnD+6N4nQniNB2OhBYUxD9UQ2NWFm9dPIaywEZiTUbUdipmYZmGZhmYa4e+oMROtojEmh2NVFzUqp3E6F4nQvFcQfF/XTyFTiWNrTM/kzDxC7HSNqYm+sGxBq6/Y04flQ7GuGLC/YIuIRY+snkKt5HsDajIWMyzzMs8zLPMyzzMs8wixtTDb6qyA7Qo3E6TxAjRU6aHY0AubVZyD8TradbTraZjQG4piD79ZPIVbyPYG3YfyNVe/Yd/oUwx90JsCdWGfi1GFxb1lNiDMxZmLCbk9jrWZizMWZizMWZizMWZixjdidAxCN4HUy4pcQuojOTVWUATMWOwIsNSmxmYszFjWv8f8AYv8A/8QAMhEAAQMCBAQEBQMFAAAAAAAAAQACEQMgBBAwQCExQlASFEFREzIzUmIicZAjYXKAkf/aAAgBAwEBPwD+WqVKlSp7bKnOdCVOhKntE3ju86IsJ1R2SdMbKexE6gzPfRsuCPbRkdkO2DI7MHsBIaJJACfi6TeUlOxr+loCOKrHqRrVT1lfEqfcV8Sp9xQr1R1lDFVh1IY2oOYBQxrephVKsyrIacjtAd6SAJKq4sCRT/6nPe8y4zp4N0VgPfKtXqMrPh3CU3Gu6mpmJou9Y/dAg8jOyB25sJDQSTACr4g1TA4N1WO8D2u9igZAKxH1qn75te5p/SSEzGPHzCUzEUn9UH+9vNRpjak24qt4neAchr4V/joj3HBYoRXfdTr1KfI8PZU8Wx3B36SgQRIM5zlChQoCi0bQ216nw6bj68hrClUPJhQwtc9Cw1GrSJ8UQVWwpq1C4OAXkfzXkR968iPvXkfzRwL/AEcEcHWHsU6hWbzYUypUpHgSFSxbHcH8DZN0ZRusa75G6Lab3cmkpuDqnnATcC3qem4WiOmUGMbyaBqFrXcwCn4Wi70hChWo/TdI9imVJ4EFrvY5jdm7GfVH+NoBPIEpmErO9ITMC0fM5NoUmcmjaEA8woyG6N+MH9UH8cg1zjABKZg6rufBMwdMc5KaxreQA3UdhxFB1XwQmYKmPmMprGtEAAd2N0d9hR3s5Qo77Cj/AEZlSpUqeyG+dQaU3neHQGmLoUKMhpDcm4i8acWRebBuToiwXnMawzG4NxzFslSVJUnM3EqSpKkqbDYchuDnKlTrnIWHQOQyOY251QFChQozN0KAjabJU5jbnOFChReNIG02nfnVBUqVKlTmc5UqVKJvAUKFCjMbY7MZkaAGR0DuYUaMKFChQoUKLYUWQozhQgL4UfzGf//Z;" vertex="1" parent="OKhfb2b17zBWEA9jVU_0-18">
          <mxGeometry x="65.45454545454545" y="40" width="72.72727272727272" height="72.72727272727272" as="geometry" />
        </mxCell>
        <mxCell id="OKhfb2b17zBWEA9jVU_0-8" value="" style="rounded=1;arcSize=10;dashed=0;fillColor=none;gradientColor=none;strokeWidth=2;" vertex="1" parent="OKhfb2b17zBWEA9jVU_0-18">
          <mxGeometry y="20" width="200" height="100" as="geometry" />
        </mxCell>
        <mxCell id="OKhfb2b17zBWEA9jVU_0-9" value="" style="dashed=0;html=1;shape=mxgraph.aws3.cloud;dashed=0;fillColor=#60a917;strokeColor=#2D7600;fontColor=#ffffff;" vertex="1" parent="OKhfb2b17zBWEA9jVU_0-18">
          <mxGeometry x="18.18181818181818" width="47.27272727272727" height="36" as="geometry" />
        </mxCell>
        <mxCell id="OKhfb2b17zBWEA9jVU_0-19" value="" style="group" vertex="1" connectable="0" parent="1">
          <mxGeometry x="80" y="120" width="200" height="120" as="geometry" />
        </mxCell>
        <mxCell id="OKhfb2b17zBWEA9jVU_0-1" value="" style="rounded=1;arcSize=10;dashed=0;fillColor=none;gradientColor=none;strokeWidth=2;" vertex="1" parent="OKhfb2b17zBWEA9jVU_0-19">
          <mxGeometry y="20" width="200" height="100" as="geometry" />
        </mxCell>
        <mxCell id="OKhfb2b17zBWEA9jVU_0-2" value="" style="dashed=0;html=1;shape=mxgraph.aws3.cloud;gradientColor=none;dashed=0;fillColor=#003366;" vertex="1" parent="OKhfb2b17zBWEA9jVU_0-19">
          <mxGeometry x="18.18181818181818" width="47.27272727272727" height="36" as="geometry" />
        </mxCell>
        <mxCell id="OKhfb2b17zBWEA9jVU_0-6" value="" style="shape=image;verticalLabelPosition=bottom;labelBackgroundColor=#ffffff;verticalAlign=top;aspect=fixed;imageAspect=0;image=data:image/png,iVBORw0KGgoAAAANSUhEUgAAA8kAAAEeCAYAAAC5aFcnAABe+UlEQVR42u2dB7gdRfmHVwUB4S8dpSqCNJGOioB0BERpClKkSVdEigg2mvRqKHIlyTl7zk3Ai0CkIyU0qYEghJZy786em0IIJEBIIIHc/8zsCWn3JufszuzO7nnf55knCPHe2ZlvZ7/fzDff53kAAAAAAAAAAC3NwPEre5VwY6/UtaPni5/KdrxXEX/xyuF18k/fqwT3yX833PPDp+WfnbJNabpVxBj5539le1H+nNv0zy2HV8jf+0fPD46RbT+vLLb1qp3re21jlmVSAAAAAAAAwB6lruW8am1dLUb98DQpVsvyz3tle0n+c7dsM2TrcaBN00K8Ip6Tf94lhfPf5Z+neKXaHt7AsWt6HROXYTIBAAAAAACgcfrXVpDCcjvZjtCntb64R4rjifLPjxwRwkkEdJdXDu6QIvoi+c+HSRG9pVeZsDSTDgAAAAAAAJ7Xb9QS+oS1Ehzi+eG1Ujg+LP8UORfDzbZRsj0gx+Aqzw/29CqjV8EwAAAAAAAAWoX27jW8sjhQCsIL5Z8vFOCE2HSbKsflP7Kd7VXDfb1S11cxGgAAAAAAgKKg7uH6wTb1EOMn6qHTiOHG23jZ7vfKwZ88v7aJ11FbCqMCAAAAAADIlTCWQi7K+HypFHivI3RNNpWsLPiz/OddMTQAAAAAAABXGSSW9yrBXlLEDZICbiRiNoWmw9XVXe7ad7wBb/wfRggAAAAAAJA15XB3fb84qkGMcM2uvSbbWV6l9l2MEgAAAAAAIE38MWtpQeaLYYhT59os2Z6U7WSSfgEAAAAAANhEhVOXRUkKsOmI0Vy0t2W7xqvUdsB4AQAAAAAATDC48yueH54kxdZwRGeeW/CorkfdPurLGDUAAAAAAECzlLo28MrivHoJoiIIxWmyvSPb+7KN9iriOZ34qq+m/ntFjJF/9wPZJsn2aUGSfb0qxfLpXv/aChg5AAAAAADAoqiEW0kxdaNs7+VE+E3RoldnehZDvHJ4XVRTODhG/nmAVwq31s9UDtfxBo5dU4r/r2uB2DHii/Kfl+y19Ru1hP7v6u9VgrW99u41vGrn+vpnqZrP5fBg+efR8vedq3+fL+6R7RXPD0WOxi2Uz3aVN6jzaxg9AAAAAADA/PhiO68ifIdFnboH/bwUvjdH2bTDk3RmbSVe24Yt7sQYqjJMlWBDr1TbQ4r238j+XqL7q05vfTHD0XH9QItltXkAAAAAAACAOA62kULpFsfCid+RIvgl3S8VGlwW2+qTYHXCm0fUPeBS7ZtyrHeSz3J2fbxH1E/BXRnzSYhlAAAAAABoXSrhxlK0DXTovvCDsk8XeOXgUC2IWwF1Cl4Jfinn4UrZnnHnZFn8zfNrq/OSAAAAAABA8VH3a7Uo0wmpshJiH0d3eMU/vGq4r7732+pEd6RVsrQD5zppzlIsv6Xvdpe6luOlAQAAAACA4qFClaN7sm9nJLpmyvZv2X6vE2nBoimLXeRY/dHzw6fluM3KqHTUm7IPRzIZAAAAAABQHNRprS9ey0BkTZbtIa8cntgyIdQ2UKfM1dq6UiyfpusdRyfxac/lQ16ltgOTAQAAAAAAORbHnZt6ZXFnNoJK/FYLOzBPWWypE4CpWs5pz20luIH7ygAAAAAAkC+G9iwmBc1Zsk1NUUC9obMj+8HmTEBKqJrOfu07Xjnsr+sepxeCPVEnHAMAAAAAAHAeVTtY1RNOTTCFt8nfebAztYpblUFiea8sjtNZwlM7VQ6HsikCAAAAAABu0jFxmegkNxWBNE6fXqqwX3CLnp7PedVwe68i/JQiCT7UWbABAAAAAACcwRd76yzE9gXRSCmOT/UGd36FQc8BqqSUH1yoyznZjyh42qsG32fQAQAAAAAgO1SIc0VclII4flG2k732UV9m0HPI4HErRaWkRGDZTmZoOwEAAAAAAEidSu27nh++ZFn0PC9F+M8Y7IJQ6louKiNlPcnXQ14lWJsBBwAAAACAlARy8CspRKZZDqs+StfnheLRNmZZfY/YF10WbShkgwUAAAAAAOzid6+os0nbFDa+ON5rG/clBrtFxHIlvEDO+WSLNnUxAw0AAAAAAOYpdW3mlcULloTMNCm+z9d3V6H1GNT5Na8i2iwK5Ye9arAqAw0AAAAAAGZQp7u++MhOrVvRrrMgA5TCraU93G1JKL/llYMDGGQAAAAAAEgokMNr7YiW4H9eJdifAYYFUPfR/VBYEsu/Z4ABAAAAACCGOK6tLgXFY3ZCq4M/ex09X2CQoU/611aQdnKlJaFc9Xp6PscgAwAAAABAY6jwZ1+8bkGcPOFVOzdlgKFhqmI3XQrMvC0+4A0IV2OAAQAAAABg4fjhPlJAvG9YkLyrQ2gB4hKVjJpp2C7Hen6wDYMLAAAAAAB9CBFxnJXMwu1iIwYXElPq+p60p+GG7fMdr1Tbg8EFAAAAAIB58cU5hsXHx145OIOBBaOou+x+cKH5LOvhkQwuAAAAAADUBbLxDNav6FM/AFuUw59IOxtt1m7DPzCwAAAAAAAtLzaCmw2XdrpeCuQlGViwTtuYZaXN3WJYKJ/PwAIAAAAAtCLn9HzeK4s7DQqMD2Q7goGF1CmHpxoVyuWwP4MKAAAAANBKqBqxfni7OVEhXtBlowCywhe7yhYYFMsVBhUAAAAAoCXERPeKUtT+x6CYuNXrX1uBgYXMqQRrS3t8FqEMAAAAAACNoUKsK+FQg/ePL2RQwSlU9utKcINBoVxlUAEAAAAAiioe/PBeQ8JhpvxZBzGo4Cy+OIsTZQAAAAAAWIhoCG8zJBjGe9VwewYUnKccHizt9RMzdZRFOwMKAAAAAFAEVIi1L+4xlKDrVRJ0Qa5QGzq+6Da0QXQuAwoAAAAAkHfK4XWGBMJjOukXQP7egXWk/Y429B6cw4ACAAAAAOSVSnCVoVDTu71S15IMKOSWAeIb0pafNCSUqQcOAAAAAJA7/PAkkhYBzIVOXhc8ambjKNifAQUAAAAAyI9APsiQQO7HYEKhaB/15ejqQOJ3Y6pXCbdiQAEAAAAAXKdS+6504GchkAH6YGjPYoaE8jhv4Ng1GVAAAAAAAFcZEK7mlcUEA87/Ne6J/9Gr6DI8fnAhE50jBo5fWc7bb71BYnmn+qVPlI2EXg/32sZ9iYkGAAAAAHCN6HTsqUKeIJfF4fOU8SmFWzPhOcEXN9bn7Q2vEuzlVN86RnzRq4RDk5dGC25mogEAAAAAXEOfsiYVyMFAt54p2FD2665e+vo8E54LgbxrL5nS271qsKo7QnniMrJfjyR/d8LzmXAAAAAAAHfE5OkGTpDvckxgnSLb+wspS/VbJt5heno+55XFq33MXyD/24HO9LXfqCXMRGGE+zDxAAAAAABZU+ra0UA5m/u8tmGLuyGOu9eTfXqggX7P9Pwxa2EAjlIWlzYwh2Vv8LiVHLG7FWV/RiR8lz6U7+MGTD4AAAAAQFYogaEy7CZz7F+Tjv1yTjyPqj3ri0lN9P0BjMBBVGmkxufwDc8PdnLE/tZu0v56uZ8sXvDO6fk8RgAAAAAAkAXJ71J2O3E/VJ1i++IfMU/Bf4khOGeXz8eYy3PcEMq6hNoHCd+rGzECAAAAAIDUhUj4h4SO/CeeX/tO5s9R6vp6wgzDbzkTsgueVw7OSJAl+g4nSkWp+9LJrzAcgjEAAAAAAKQmkIOdEjvx1XBfB55jP9mXKQaSjt2CUThAlI18VsK57NJZsbMXyr9J+Bwf6Q0gAAAAAACwLUQmLK2zAyc75TrdAYH8ZwPieO5n2gvjyHxOHzU4n9mH0ce9AjDnfvLjGAUAAAAAgG3Kwc0JayEPzrT/UbmdslGBHLWx3oA3/g8DyUwg/9rCnF7igFB+MJlQDv6KcQAAAAAA2HPYf5pQdDyfaamnjonLGEg2tpDTR/E3jCQDVFixL6bamddgoPz5S2b3ztVW1/feE9lluBVGAgAAAABgmqjcU5L7u5MzzWRdDbaQfRhlTSDPCXHdFmNJffPmfsvz+qw3uPMrmT2fsimd6C52/0foCAoAAAAAADBIRbQnExrhQZn1vV1sJPtQsy6Qo/ay19HzBQwmLYEs7SqteR04ds0MNwJOSbh5cynGAgAAAADgjBAJz8+s7yqLtrVQXMdr7hYddbrri/dTnNdxnh9snqFQviVh6PjmGA0AAAAAQFLaR31ZOtjjE91D7un5XDYCWeyWMEw1fvkddXoNdkmcRC5WezuzkHqVGC5RZvnwaYwGAAAAACApKnFRfEHxvlcO18mo36oG8swMRNTsU7tnMB6bGyA6QiCjuRXTda3wbOx6m4R2+WeMBwAAAAAgLqWuHRNme/5FNgIqsxPk+Z//WIzIAm1jltUlt7KdX5XEbrtshLK4LEG/p3nt3WtgRAAAAAAAzaKST/nhS7mrh1wJ9ndCIM8WJFkmeyoqfjjIkfn9yCuLLVN/fnV9oSKeS9DvDowIAAAAAKBpIRL8OoFAnuj53Sum3udS1/ccEsiz2xCMySBlsYtj8ztK12lO39Y3kL97Rux+q2gLAAAAAABoVCCPWStRTeRK+MMMxNOW8ne/45iAqo9HsD9GZYDKhKWTJa6yVht7gufXVk//PRVnJRL3Q3sWw6gAAAAAABoSI6ItV2HWg8etJH93t5MCOWo1r9S1HIaVdCMkvMLhOX5C35VOExV2rRLExRb34YkYFQAAAADAIgVyuHECofCWrl2bJlESp+EOi6fZSbzaMa4EVIPvOz/Hvrg/9XEp1b6doL+TvQHhahgXAAAAAMDC8MU9CU6mjkpf1Iu7cyCeZofl7oKBxUAnkRMv52OOw+tSH5+yuDRBn/thYAAAAAAAfQrkYKdE4aap9ze8NjcCOWqvex21pTC0ZjdCwgtyNs+/T3V82sZ9Sb67b8bs60yvWlsXIwMAAAAA6F0kx73f+KlX6tos1b6qU+t8CafZJ41XYGhNoOzKvYzljczz7umOU20PrgIAAAAAABgVyOE+CbI3X5VqX6P7qbNyKZJ1+Z1gCwyuUbsUw/I5z8FE+V6snfJYPRB7k8uvbYKxAQAAAADMTUU8F1sMtI/6cmr9HDh+Zfl7x+VWIEdj9ox3Ts/nMbpF2uSZ+Z5n8aK+T50W7WKj2JtH5eBmDA4AAAAAYDa+2Du+EAhPSrmv9+RcOGVzbzV3AjnYMJdh1gsma7s65XG7KkFEyIYYHgAAAACAFp6x7yK/4rUNWzw9AZD7k8W52zRvUOfXML4+N0MeKcxcV8KfpzZuKqrDF+9wmgwAAAAAEJdquG+Ck6e9UutnKdw61/eQex+/+zDAXgXy8YWaZ1+851WDVVMcv7Ni9vOT1BPwAQAAmKJj4jI6H0gl3MqriB97fnCMVw7+6vnh+TqyqxzcIf/5dtlui/5ZdMh2Wb2KxiXy7xwn//2h0jfe3qt2bur5tdVTvTYFxWaQWN4r1b6tS8L64jBpn7/WducHFzbWxDXkkElVkMQ8Ra6EQ1Pr44A3/i9BiRvXw3GPwwjnnutwNTku7xdvrsN7UxvDfqOWkL9zZMy+VjHCuSgHZ2hHqiL+Fbtph0zclGrUTX6+P8pBGJJwfG+TP6NMeT1HqYQnJJpj9f5UxN+YX+iVwZ1fkfb1U9kurq8FI2SbajQJpy+ekj97UF1sH+SVur7OwEPD6Hwx4R+kHd0i2ygDdnkEg5oGUZbouAvHTul9ZOUHsogCOWpTvMroVTDGz0TJHYWdayW4UhtHcXjMfn6IAzCPiHvUYNj9kQzoPN+fVXWdblPjW+pajkF18R0Stxr5TqaZIBTcRSU9VRVCysGfpPB4WtrG+Ay+55N0Yk6dAyTY0+tfW4GJgXnoGPFFvaHii8eMH/ykeYUPQeL4qVgUktBT6Ead2tmbIb8o+FzP8Kqd66cylurUsiLGxLTHizDG2Q6+PpkwNf/DGdC533cd3mhqbN9FRDkrkv9hYH7f0BFl0MJ2NGat6DROC2PXvu2d8rvZJn3qHzFRoMVxWbxQiDw3reug6OzBMcvFiG3T2YmpLaU/jkUXyVHbu6XtcfC4lephTQWf5+DRFDeYjov5fk9AcFgRyT04UfOs7eMQyYhkRDIsYjNtK+mv3lA/vc3Dd175rCd77d1rMHkthoooUIdeRUoG27oLj2iLOUH3pyjkr2oRgazaWy0dLhglz2iNuS6HJ6YypioszRevx+znySySFkSyL55gUPXafrrhcUUkI5KhSJTFt+p3OPP6rX9bPsN5iOVWWeeCnXREQdEqprQkKrta3DIxvtg1JYPbXP6uT1tIJKvWr0WdqL1bbJ6npJbt2g+Ojh0arEQ2Ivk24/OvckG0MipTbPzNG0QyIhkKvT7UlooSZIkPCvK9n6TLl6qs21BUgbynrg5SxLKiLUmUbTLO5Dyb4i7i4y0mnGYnn9mxpWxRnZ7nJ4wqf/fQS11Lxk5sUg535+NnQST74qEWF01HWBhTRDIiGXLvD9T2qGenLuJ3/3XETSH11A91vplU/UfsyPZH68WY9+kOSKl/h7WkQJ69kLbWDtz1LTvXldoO6Szi4i8x3/ebWSutiOQenZ21db8/zyKSEcmIZJhPbPyxRb79ZSqaFISoZOm76fuOiGSbomSnmBMzMpWC6vpksRUSOC30lPEvLWGLrZC5fOHz/Fwq4zxw/Mry970Xo4/TdUZRRLKNufdbVDDZulqBSEYkQx5RpXLUhmxrff+7pZ+7H5OfY4b2LCbn8clsfEdEsk1hUnK6xmvr7CYurH3ilbo2KPyH0RejW36uy+HBKb33V8fs41mIZCtz/6nnd6/XgoLpfkQyIhmRDJq2cV+Sc/tg6/oA4fkYQV61lNREmR2wIJLtECXsejtG2ZqJqRRL13XwxFREsh7zZ4rtOAVXMse6hak4f1Gm0BiJJcKX9I4pItnGaXJbi23QbmvxPUIkI5IhT6ioQRVNhQ/wQCr+NZi03a+nfg/ZpkiO/MOLZTs3VquEF8g/z/EGjl0z7zsfhzqdddkXN7JgztOOL6izvGWqmQCdP00Wv0ll3Cvh0Jh3p7+LSLbS3tN3mlpHLN2CSEYkI5LBaxu2eOzvUTHbMEpF5WlNyziXjnmRfHiu8uxY/FjdFS8sMNjcet8GiG8gnBZoU71KsHahFpd+o5aQz/UacztfSSh1b9jdTbIbEcnWwu0ub4lxrHaub7mkHyIZkQz52Si/k+/+Am0y95RzQJSs66NCiWT188wc+Gyb34lVYiueCH0ynUWz5RI3NBqSeXehFhjunPcVXn+h9bFX9Sd9MS5G/4JUkva1pEgWb3ltY5ZtAaf4asvjiEhGJEM+7OEsvvd9+nvHYiDOf8vOdsBfPNqwn3OQgX7N8qrB9/O8MP0+ZmKho1I6ZWCB7Pu06aBCLC7tYiPLp0l5bu97fm31FETf+TF3CA9EJFtr57bAzvtURDIiGZHc6gIj/AHf+j7bYRiI4/T0fE7O0ysW5v5D2R6TftZ58h05ta7Xem/l4E9eJdgQkWz+Q/VYLMc9jTBQ7iIvOnGaSrqW+8UleIa5zDiTdLVz01gRJSorPiLZ1p30CYVOjqYSeth/dxDJiGRwmVLXkhlUtJgk21M6H0JZ/F2X14zWo7mTDv1RCpMrpH8yOFrvtZ+Sbj8rwSEYSA6ohBtbmPurvGpt3Yz9nBYXyaXaN+UDzIxxitzfvtMujYO7yI2U4Lo534tLcDrz2EDtRJXx077T+t8YfXs79xs1ropkG+FTzoxf94ry+cYjkhHJiOQWpywuTWEd+FgfCCl/Q51ax02GpdYSv7aJXP/3qV8Re0ivMXZCrH+BceRlLQuOMTj3Y525w9vyIrkS/Crmy/vjFD6glyGOGt5x2jmX9qfSwvviA+bQkYzmFfHbmH3bFZFsrY0s5GmyH56U0vghkhHJ4CrRYchMi+//B7qspKqcYYtS11frWYA76uGxnCC3Gqpsoxl7neFUJmhEcnBfjAfu8jpGfNHuxOhThncRRg2fNr3pdUxcJodO0kPMXcOht69an4/ojuh06vo6JZKLd5rcNu5L8rleRyQjkhHJLW8DFUvv/Sx9Qq2qo6Qt+qO7oyO5g9wiqOSlvnjW0Lf+Ssf8nPyIZJWAthLsJfs8QP7OFyMfI/hftMYEezafCHVw51diJU1RcfL2xTshuM2LqEtztvP2C+at6WsOuzu7cVbku7OZi2S54Ku7+0WhHB6c4tghkhHJ4CLRdT8bJXNeyTy6Th0kRdEy3ZmW8IEUfNkJS8u5e8eA3U5zriZ2XkRy5FN0zfU71VWuEbpKyJx/944ud9r4wwdHx3rgNHYEfDEKUdR0+0QusFvlYlGJwqynMGdNt7vsv3ux1oVZ+p4XItlm27tA4mgYIhkQya0uLsRFFt73IToRmDPPOHqVKPkXd5ALi4pWMLPZc7+Dfo77InlOqPtUXSpNlTWeGxXdEV0tfrv+nvmNfqD+GS+s13KodalrR8RQ7NPkFxAYhW6fen73enbnZsxasUKuVY1ARLLNdn8hxq0qdkt53BDJiGRwjejKRWjY/7nTun+abN0bQSnFIq5jwTZaCCZPwvsnRHKTqMTFUQTGUG/wuJXm+W8qDH5udNI96UdF5XMHLfwHq/urcRaoSnBDCpMyCDGUJOFD+Ee3d4+DQ5inRO0S63NUFv+J0a8HEMnWN8F2yf/pUaxwfkQyIhmRXCxhsZ/h9/zhnGwMlDlBLhiV2nejA4zE3/fDEclN+RL1xNPBo1Ff9QHPqPlCrGfI9vI8ZVRn50KqiDP7/uGlru/FzLi3v9UJUVkC7dxRaaU2PfVkFY2iSgXNa8C05pNkjfH6jVrC7qIvF484Re9VngNEss2W742IarBFBmOGSEYkg3PCQrQbrSefp29PVIe53n8pQgCRrK+yit0QyU1piSlRXq3a6nX9WI9CDiZGtc1VEw8vkLdp4PiV61nop/adzCteqZfx1p2NcnAGQshIe9BRYUGUgBmhbLcEW7vYKGbffopItn6a/K0cnx4NRiQDIrnFUVloTYZap1GS1Pxa+Dvp7x6AMSCSnf62uyqSy+I39Z/d77N/p35HbxnCo3//ifYFVDSH/v+H19U3qU7q6+N0V4x4+TtSWDieQQQZc6aPc2shUanZmRdDToFvda5UpuoodT6loFwTyaqcQR6JMtnORCQDIrnV5732HSN3OCOH+BkGFAohkv1gc0Ryw9+Oe+rRzTsvKJLDa3v5+x/Wc/qsGP3dcPu6z3r3gj+8f22FWDWIVfy3XRG1YV3tI4LMtMnOpJNXKfJVmDBzYqq9s0CSAtOUg7/GKlWESM5/8jY76/tVGY0XIhmRDG6tBb9s6VNkQCQjkuMT1aVWdcg/nscPniOSb/Mq4cb6ZL5U+7bOpTX/hlqpa7n6nL3R24TuEDMh1MZ2JyP4s+PC5OWMTkKStA4nXrTPQhty015zP1LAcqhWOfxJrjdmiiuSVbsxV2MV5Zr4AJEMiGSQvt71xnyyItWPB0QyInnRtA1bvH7o9qFOQj1nXdlmIX0Y7pXCref5GdGcjerF+RVnx/oQzY7ltvfBfNbpkzt1TK8ufucu7FqKnUwFstg2d2W01O6USpLkdsj1v6zOW5Tc4G3uJTspkqfrWuO5cSLEXzIcK0QyIhlcQYlalTPFyLsdns+AAiK5xUSyOkmORPJH2k+dzWcnyeKR+vXOerkncc2CQnvMsvU5G9nbh2mIc3cNS10bOB1qPTvUPJ/ZmcfNs9uSJioLsy9ez9FYzdILXrQrtbmZhc9ae9u68z93ZsDGI04uQCSnsknyl1yMU/QxmoRIBkQy1MuPjiTUGhDJiOQE346ojNPcP3f+O8nRQc8U/Y2Yv376nCRfj87nsOgj5hihpMHRdifC6VDrp+bpa7ww1IxbLxfZ03GCLsnZOJ0/31y7Hib+U8vzd3EMx+VuRHIaLZho/V66EQdCHJvxO4JIRiSDM3PevWI9iU7SeX/f2VKXgEhGJNsWyb+v+5sXLSB8y2H/ubTlMfUI0TvnnbPwgvq/P3veHxyVdpnR5AN+bH3y1PG4u0JkuwX6qyYhdxmRazuk+3LpDJZ5GqMR3jk9n5/nGaLIgXcdDrn+m+UFcp8Y/ar1XXsOkdxSp8lRJMlIRDIgkmEuH9TEe/3KAt9rAERyi4jk2ur16OMpn63/s+skqxrs8wriofUoxyP1/1ZXh1X+HDVngzq/Nt9kBvvHeMBRVidBFYF3V4j8u9c+q0nxxdicicCXdSRBeg7QsHyNjxT1vS6AwekO9/sVLUSsOTTda0SbZAVY7Isokn3RtUAYkUuUw4MdGCNEMiIZ3JnzXQ291/9lMAGR3KIiOVpL6pGqweC6SN5A/66y+Ps8f6/aub4WxWXxav0+c1v9Gu1VvTgtwZ9iPOCtViehGu7rqACZ4VVr6+aw39nfF3U/U/n87Zw+n6XUtaRcKIS7fbe4sEap9p+NYWdHIpJTa8c7OT5Rgp7hiGRAJMNcm847W7kGB4BIbi2RHGW5fu6zqErlc5S6vt7r90CVoVXZrZWeja5WPt37AZMvbomR7fdsq5NQDq9wVID8o4GPfDlnYvBjr9q5qd1ND71rMyNHYzJci8GFi/5fOxxy/VvLjuw1MRb7KxHJqc3/GCfLoPjBTo68I8lFstooU1cIdL33GE1d21A/wxWUc6HqRMZ9HjWeKmQtqd0hkuf2g9aJ3pnwpHqJpFu1IxddV+itvR4lVgwGSx/tPK8cHKqdQFVuzel109S6IMcG3EIJlHL4A68SniDn53JpkzfrE/8+bTh4U1+1VH9PVY5R+Suq4faeP2atfPkC+mphcpFc6trMvXVJHGhEJKvyTDbQVyKDRz+rg6xKFc/vz6tvVVlsKe3sjs822Hr9ZgztWSxWpuGy2MWyE/68g+JjekNJIZSzkL+w6yctz+cTucpmXQ22aMipVHdt3XyGIXZ3SWMlXnoYkZxqmbeDHTwxuq8QIjmKpqjUHboRsZouV5FR8sTeHZ/DZb9Gx34eJUy181tbHZEcE31fP9izXlbyEUPJrKJqFnptCs+X87NJgTfPCLfOGqUpKuEP5VxcVq+E8Z6huVWhsf+Jwmmlvbh+97xU+6aZk2QHNwdKtT2M+NkqFNoWOoS6nogratPqZeZuqdvl+3Pp2Uv7vqI4IFxNi79mxeICF5tN7gLInx3rzqP1LMe3NSEifpzD2sknWnK+jstZTeTzmni23zj6HJ1W76XGC48bucjTeUSy2bvpLjkSpdq3HRqbZCJZby4H/zPQj0ccEslnG3F8kmYXbkWRrE6LtIBNJaHdVH0IoUpYupIJ2ly49Yuo1MxOTjepX6lLw4Y/1XmR9FXRlDd9VLRNOTxK+8vqWlNvLdpwvMSISC4Hf9URIX39rkW3kxd6RXQeYTlxGe2v61P/Pn/eYbLdZORbocRpNFbNP5dav6pit0UfWnavoXMIRSHYs4Xxe/Xv9+8XPTblcPd4oagWHXAzR/k27u5u1eRpW1vuwq5Nb36oUJtoBycvY/BKk8+3pLTXCU6ehtsKZdEfRF2yo9loifcbXqwRyabWrB8yNrZEspHomH+7I5LDUw08zzt6zUckN+gj6BO3jgzfgw91VQ4VdpjtJsGOhp5nkj74gXQ3OCriXxlfL1K/f+9UntdcJvY0/YAjG5zLtXP2bM1HJ6qNgCYN/FcxOnaL5ZfuKgcn47EYC/+S9XC8HL1MhuvZ+uL+nC0mWzX/jOHljp6IH2dZ9LwUo1+7IpJTbfc74kit7VhOAkQyIjnLsV5H9rHq1FUyX/TzBo5dM5t1c8xa9dItxdoYLLY43rAeujrLIf+13frJst+9nsEQ8rT82p+n/h6mtTmSwmJ9XYyOXWTXCKUgdU5wBAfEHN8f5G/XSfzCzDwGR+fr2cM/xNsF13dPZrlns/Ldtvue3hojedcxiOTUW/YbE7ESvSGSEckFFMl+8Lt6yLOL38FJOpQ0bQaOX1n+7g8MfccvR8FaRK19UUWcmU5fmbOVFBGR3GIiWSX4ad7RPdre7tSEpXWdT7cm4y2dLS3+GPfLmVAen9jBGDxuJYfrXMfLZr3wOX7EyegHm3dS/eDCGH26GJHcUDPpgAzJdEz611Yw5wAjkhHJORXJ1WBV2a97cvI9rCbyeZpFZZqNk0C2r3wcfSbhgYSnx2vnJwmrymocbIhIRiQnFcnN1jtVA7idtf7oBBYmMsIZPWEckOwDoLMgj8yXUK4X4k518yWzNi1xCSy1++7kc0nHzN4H85AYfaogkhvaCf+PwQz/szKttRhvM6W31mVwMwqRjEhOM5Jib0dzVyz8favUdkhlfFTZMLOZ709B0Zr+3kuhlTdxqK4RmL52hkhuIZGsLjCrXbfmxNNEq4kRXEza1UgGtUU7IPkLu4773H64T76yWQdnJJ5fXZdNvO3eHDZQyir2x0LXAWy2Tw85Wb/XOZGskukEBxi0hWw2J6ITorcNvad/NVibHJGMSE5LIP80d9/+uZN5VoK9Ulo7Teb2GO911JZC2Rqz4VNybMOqnYNIRiTHnexm6/CNsvwy/t6xuw2vGny2y3K2sATayW0uEmC5qCZjC9aH1kkjnLuXbO9+maqH2nyptpFe25hlEcmLbLfW14wXjTm7KllQ+qcPJxizZbUWmft5iGREcgr2L87MubioRw+G+6SwVhxpePP7DtStkXXhigLYsBJUPiIZkdwcpa7vxRCNj1v+qLQ7JjKuMHdyX1tKf7zzVTP40uYWkGBgjp5vptE7K5VgfwfD5i+09q4qJ7T5e2TTdN06RPKi2oN1B+Uogx+UtgxOIEYa+sgPrUcanY1IRiTnQiQ7+T1IUJfW9omyinoyngAzPB+Vm+h7dn6BbNhMMlNEcguJZLXoZbUb0xsqyZAfPl3oOqPqPnfuFpfadxp0snbP2cJxguFNp6/KnzvFsU2OOy2LoAeaDwFPeP+7lUSyCk33xWhjm0I276gv+H05xOBmz07RGqNCrhHJiGTHRbIf7FkocTH7RFldG7OFSpzpixEWNoqv1+8rNPsenlxAG1btXEQyIrnRhfyYGIN9gcWT7SXdSm4RTNSZWc2flv8tZ4vKi405jXmqCR0+benD4lpd6GHORX6UansgkhtI3PWZeBHHOXk3a9HvwnBDH8LnLJxsIJIRyZbsXl9DeaegAqNmdaPNXiTaY4XenDV+qh9uX1D7ne3/xb8+gEhupZPk8I8xwhVOtLdAauOb4dAk3GNxxzRnYdfBnxbh2NyYo+eZqmsb2xEG5zr2rGOtbPTMEXCXxljYflFY58KGSNYRNmKUMXGoapLaF8i7Glx7DkAkI5JzI5LVpk6hBUbwqMXvyS6WT8Kv8wZ1fg0VvBBUYl51QFRoGxYfetXO9RHJiGTzDm413NeiaP9hocIyirVTN61PYVkW2+ZsF/G0Fgqze9/ahoCe++AMp8a/iCI5sqvfGbyXdap9wSXuNPSuvjRP/XJEMiLZZZFcFuelsKaP1kLVDwfprPWfNbX2BM/oNd++UP6dlfGL3qsRlvv/gU6iWql9F0Vsc+3OQR3lOJS6NsjfXWxxeIPP9vV8if/gPtu7/dXmQyXDrS3253jHJmE7u+NvtORBGu2JBZ4hqgH9Sktms+51F1Y6Zm7Vw7R7j0ydCruUTKyoIllFA5jb3Q+tCgj1jTAn6A+eb3wRyYhkN0VyqfZta6de0TWeI3Ryq0XZ7QDxDV3fOLrW1WmpT7PkGvUtS9+UY1M8YRsq/zzLaxcb6ZKorY4vDkslCVzkIz0vv2mDtZ1Wghv0n+XgZvnfXpD/7S1ny3+q9yuKBB278Gbqe61/zthkrcHw8uiqSNjAz3zX0By8nfDZ/mE7LOhfTT7QDP0hsPeCuhSq+q71RTPKdv1yzsI2jsxg59xczce4ITbN2fGDjp2cH2QxImLfGH26CZHcpEiOfvYfDO6iH2PR/juMlaCbv9YpIhmR7KpIVpU/TG9wKvHg1zZJZKdR2bRhFr4tD9nZbNBlJNO+0z0rqtQQDtDjVQ5/ojcBXKm1ncomT9eSlst3DtfVYkpdOy5y7VVlIqMrO5cZLIPYW3uv6Tv2KpmmOhxaVIsiLD9N3Ee16dzI71tYU1e2TD6bmaScs/QBTpLnsp6QT+/kNBlya7PWpv4gOCMuHsn57rPF8N26ExSVbMhT349Pydl0q66gSvxkbw3Zruk7LDYz5BdZJCvHwVyUwuv6g2h+DV/b4J2m43sZX0QyItk9kazCGc2u2//Wp5umUE5yVD5tpjMJkBZuAy5EFU6rn8T/V7Yhsl2sc/JUgp313U0l5m2soZm9/zGuXzYavecH+2lRE3+t/amFTShzZaF6teFgcyMi2VbERrLv/P5GRHIl3Mp1h67ZcktjdZkbew73rQ6Ji37pLU7GypqkW5RdbSTkp9//TfG9Osixk+Q/2DtJ7txU/o7picP2EcmLFsmmo23KwaEWHIMrDT3/hAVOkRHJiGQXRXKUiHO0ufXa4nWUaFOzy+AG7AsW+zrcYX/iU+kHjdGn6Sojt9qAUFePdK4ZKaBz993qXrF+V9vkGM3U42LWJk6uXz8wfEe9trp5IVn7rhGRrMS2e37OQUZEcjX4vuMvRpMZU9WC2G/UEhb74075nPnDiu3PxfM5O5V9OEd9fc9q8qoFd2S3dOz57W34qNOO5j+uT3pFxbZIHiSWN5hZc7jRZx88biX5MydbTZqISEYkuyaSY+VlyNDviN7TJ52/zmMyt0G67e16iPAD0jYu0qftKgLT5TvPsRJwLmKT01YuFHWyarrcqLoPjUhGJPfyMfqgScN/1atMWNpif551J0Q13D3VuSh1bZar1Ov5ymJ4TKpz2d69hkGxYCID4A3WnlU5os2fTDyGSI4pkk2e1ka2sbNBR8tURMwkfbKBSEYk50EkmzrxLIdHpTbXqgycHwpD79Iwe2Mb/LkgfsgnOsFpWVytE7AlfUdMoksMGhWd4/RVPJvMSZ5lqs+Tja8XiORCiOQpTTpujzd8ATxef55yZEH7SDqPG2awm/cnBG3eUsT34UBHGRpdGYe7rD2r2h1vXiS/WKi7XKmLZJ2BcqpT2d7V5mmUbdJu6T1EMiLZJZFsruTfxanPdyXc2GDoqr1KIBXRXkDfZJI+aVYb+FnXbVYn3WZLhX47lX4P7vyK/H3dzh6mIJJbUSQHd9hbCLWTNdKRBaymkzJksqOXu7Brt5OMNZu50Jg9S3HuzjjcY+/UXAqNZk8k1F2u3u6bIpIbE8mRc369uY2k2g4GHO4TjDlZA8euiUhGJOdDJJvI5B6+ZPXwYaFzLo4zFHJ9rWW/6JEC+ynTdbSXus+cia8ifINC8+iU16zdnT1QQSS3oEi2+UEfEK6WWm20Rk66siLa3UXgmln0Dsnw3ao4lN36TnsnySO+GJXOaKpPoxDJCUVyFNL/viEbGWLA3s2Evi0q0ygiGZHsikhWG7DN+1ALtqwdRT94xkgtV5Uvwdp3RkcsPdQCfstduvRRWvSvrWCwYsKQTOy3ItqMbdCq7yoiGZHspEiOQifGObJQPZixAZ6PyHX49LSxObzcobEYpmsg2ltHnkIkpyySo3G/xpiNqCzl8ef/MGP39hYVeohIRiS7IpLV3dLk/aw6MO+7G9rgOthqP9WGrIpmbA3/5aaFRtSYiyTYxVB/P041OercqHFqvsKGfRtGJCOSCyuSK+LuzOemIp5D6CZw1LIuw1AJTndoPDqt7vI3X0oOkWxCJFc71zeYqLB/gu/Ii4b6UW1gfBHJiGRXRPK/E/dTZXB2wxc0cc3rlnTsNGclM+O3t6xlDp8z74ZKCoa3Z/zdHWC0vCkiGZGMSLbkMBqbm9omus4cgjdOO8yBTY7fOjQeI722McsikgsmkqM1/BZjJwHV2roxNoN2NlhT81uIZERyLkSyylkSJV9K0senHJr7o4xsxtosETqvjeytf19rVOe43t44Bo8a6uOemdpvVB3GxHi/puueI5IRyYjkhbbLnJifivgLgrfpHc173XA6ggMQyYhk6yI5ymHwiaHf+fcYdm4m/LHRpJCIZESyCyK5In5s4NTqt87MfWX0KkbKFqZ5Mq7KxKkcBkaEiPPtVuP2rMuAJd7oiTZH2oYt7oCe+a+BZ/nAWNg4IhmRXFiRXAmucmJ+ovp1zyB8G25TMstm3ftONyIZkWxXJGtxI0rG3h/lODXsBIRb6Q9dmvWaEcmIZBdEstpIT9a/D3WtV7fWrtsNbFKflMG3djudnLL4/s3L2k82OW4m1m+VmdsNn+ssQ6fi+yGSEcmI5DyIZEV075Cwa9ezWS+4iOzj0NiMtlrSDJGctUj+lkFbabxeqx8MNvQ7H2hifBHJiGQXRPKDCfv3inNrV0Ucm0k0ijFfSeymI8l88VFxfRzxnDd43Epm3ndD5b8q4meO6JldDYnk3yGSEcmI5LyI5Ojj9VtEsKPlB/IgksviVbsOY5MimTrJZkWyGad9jshpRDyqUzBTGUVLXTsikhHJuRHJKgliUl/Fhbwn81OqfduAQ/+MzkKd6cFCsIXsx4XGytK5KJRN3Jsti0uN5JJoFxu5Yb9dXzVyZcDURg8iuSVF8hCrBm6uXluxRHI0V48ghPtsk1Mpl5BXkVwJ7vN6ej5nZwNnwtL6ZLjZsDF1lQCRbE4kV2o7GExceGoDguoKQ79veJPji0hGJGcrkrUIS9y/U5xbu9SVHF+Eia9s2Kyk0OzzlGp7yD6VpdD4X8Fyr1yb/H0PbjYg2MdYzyLf3NrxbKqRTYjkwovkD5wRySoJQ/IFurgiWdUPNXVyU7yd1Z85uIi4dJJ8p7XnVELDD0WTfXrMKypZiWT9URZ3Gys9ojY/+hYJq8bYYO0rYdcBiGREcq5EciXYP3ld8nBf59auKAfKo4V06qN16/uyfyfrU3y1OZf3hF9lcXii9assHs/kO2VX03QYibzrmLgMIhmR7MU4AXrWWhY7ddLlSm1gF0Vy9HE+HVHcS9ZHN98tlxJ33W/PJvVJcrOlOJ5EJNsQyfqjbGgNDI/sW0yJ8wz9nldijC8iGZGcrUg2kSCoLLZ19LtVLVRukD5Pmcd9SdupjsAJT5Ltctn3u6KrQ3rT98Mc+D7v6qzk8b/brxuw45Jj39/LDYjSiUYSwCKSCyGSn2ryoUboxcWaw+2ISHalBFTvDup/EMaftVoiR9fuhsYhDo1T1dpz9q+tECMC5AlEsqUdenPrw+u93i3UkQNirHUhjkhGJLsrkisGbH8rR79bN6RyXcNlVLi4umerQrWjZGYXR6HJOvfG226dJse82+7XVtdiMHnY9/lufX+DXxsY1xlyDdsAkYxI9uohJ828EC9ZTbhjrLB54hd/gLNzVq2tq19iBLL6QPzE2Xly6dS/LK629pxRspepTYbH+4hkSyJZhXGas5sDe9nIPNaMQBZjpCOyJCIZkZw7kaxyPCTr2zSjpXzM+oQXFzYSLylq01Cd3EYVR/auJ1S9pp5R+1l9TSX97/unsWpTl8N1DF3fO9mxQ6QDDUWTbohIRiR7+gPdbBhCe/cazjuYyds9js/byQhkx8J8FhQTZzqU5MPebm+1c9PmP7YOb0LlXSRH68NThmxn3rB4lVFVRROZ+dmnxBxfRDIiOTuRHN3bfTOxSNanlMHaunybK02fLiau/6zajV4rosZP1XuvBL+S69Sg1ESzykXRtH+ia9ybiAb6uVuHSPreuYkDmN0RyYhkT5/oNPdQH+qF3Z3+WFp0wqHuL8jioRYWyBNi38VJbxG51qExs7fb6wc76cWuOZF8OSLZokguBz8yZjvKmZ9zgmboCkEwMXbdbkQyIjlLkaxOE82E3E6rJ7+b6lB710iNYXXSDlEy2ijJ212Wv++fyN+1XgwBZ2It38+tMQ+2ad4f6TWh5KGIZESyp8Mwm62Jpk6O7PXnPEdExQhrJXOMGemYteof2hbMZh3slQOxNMidTQUDC36fH4IYmV5VKDoi2W7WUDOlMHr0qbTxnxmelmB8EcmI5OxEchSm+h7XnRbaHkEhL3DK/B3LYvmSpvpT6vqegd/5sXMCLqq8MM0J8Y9ILkK4dfBnp7IyqhA8Nxb58c6fVJpzavLWbsnHR9Ghk/65TwPNi+RfxhDJv0QkWxbJJsrUzG6q/NwA8Q1DPy9ZHVVEMiI5S5EcXS+ZhhBeaHsQVdzXumzpGpbK8dBM5RlfHGbg906X7/pmTo2v+rY0X9q2t/H8BSIZkRzPwfXFTy0uID9zZJGf4dzL3/did3/rfHxD4VTh+r5Qye1MlFcw0z6WgmtLpz76NkU7Inku0SNeNRSJcLP885+GnLm/JRxfRDIiOTuRrLIe56M8ECLZ2cON4ABLNrR3E+/6UQZ+30fOCbjB41ZqOpFo78L0z4hkRHLMWq7Br+053DqZwCeFP30zSXTCM70lPr4uZ7N2dU7U/W2bmVSbv7IhW20TRHIqIvlwx97hqd7AsWsikhHJuRXJvtjVjOOLSG7tE+Xwh5mWLvXFEYjkhW7m/gWRjEhW5UK2d6qGcFRz1ZX7PqfkZ8F1qiZv65XlWvADtJ1DY/eK5We9pem8Buo+PSLZvkjWmXjFaHdyCSQ8RUYkI5KzFsnuRLshknMvlGNFci7MR3par/mIZE6SEcnGXtINo8v3TU3YYGv9UXcqfDHKjYU+uD5XC25Z3FnobNZq8cuNUAqOaQmHRSW3U5ngm+tPl94MQyTbF8lu2eKnur4oIhmRnGuRbPCuPyIZ1Dpvbtw/bDhSB5GMSEYkN4Aqw6HueTa7W5UHJ9PErpzrGa7nJkpYMKmQH9283WEth9c5dHrXZtXmVMKQ5sTf47reLiI5HZGs1jBztY2TrKeDDI0vIhmRjEhGJBeDarCFkZJFn/lKXTsikhHJiGSji754rumTIOUg2DuFu9KZhEc273JamUvT4TtOtH/kUCg97VCY+mnWnlPtWjf9EbAYiYJI7muNPzZ7OzR0Dx2RjEgm3BqRXCRUXWlzY388IhmRjEg2+rBiSJMP9p5Xqn3TYn8Oc0hg7JM/J110FOhj+7rXMeKLOdsZXtXMIm2s7WrRqf5BjAX/QkRy2iJ5wtLyZ47L0AaHGBxfRDIiOcM6yWIXEnchks3alM52nW7yLkQyibsQyQ1/GJsPDS2Hu1sUeQ4lPZIOWd6IRFoxSlQoEZa7XWHxY4fGcGbibMILXzuaLyNRCU9AJKcskiPn/uwM8ztsg0hGJBdCJFMCqpH2JMq3GXsfs1YkOI2MfUdjvzM4GpHMSTIiuaGJDH4Vw4E7zrLIe9eR5F2P5nLRLUK2a1VaKJcfPGeuC6hNnpekw7qkU89qc4MNkdw3HROXkT+3loEdPmZ4fBHJiOQMS0DVNpE/e5qRJEu+mCzbBwVrH+okotCszT9hZF1TiTQbeteDQw38vunOlXPUeZa0HSZ9tsMQyYjk2R/G3Zt/EYOrLC8YTzkiNN7P3b3kOUZ8e45FcpfXUVsqd2OuS+4Ezzg0jrfYXTuazqj+ofyIbYBIzkAkR307LYONxv0QyYjk4ojk7vUMOOHTdZ3cQZ1f0xVGitT0JkKBS/zZ83nLhta1kQ2Kye8ZiVRTQtAl1DulxbsD3y1EckFE8oBwtabDhyriX5YnYIBDJ5oH5nLRjbJdv51LkVyp7ZDLMVd39U1mqkw8jsHpdjcExGtN9mm012/UEojkjESyEoXprglPWhhfRDIiOTuRrDZvffFWwr594FVGr4IyhLls/txURXIk4IrnH8fKk9LbcwWHIpIRyfVFf8QXtfPa7AdIhe/Zm4CTyK5sgEp4ZA5Fcr/cjnecO7o2W1XsZu1Zo8zWzV6LeKj4zo7DIln3L8XrAOXwJ4hkRHKhRHK0OdiVuHJG0SNqoElfTZxpKHLnzcbesdp3DF3pOsipcVSiy5WEp4jkgojk6AX9V/MP17m+vQmQRuGO2BjvtY37Uo53KPOU7fq1XJ80qqyezoxlMNEbOH5lixswP4wh/P6OSM5YJKvrI6pCgX0bHGmlzjwiGZGcpUiObDB5ib9SuDXKEOb6nv48VZFcra1rJgGdxRKTsdYwcaChKLwNEcmI5Llf0D/GmLg9rfUnckA6HRIc++V28U3PKW7NbNaziU5Wpztks49a3hA4xamEf4jkZubuYvuh/uJYS+OLSEYkZy2STeT72BtlCHPePVNloBoUyfEiwXr7Tl3q1jgaWcNmGDkERCQXSSQH+8d4wHPtTkIw0KEswbflegGuhvu6L5KDK/MtjsTv3dpwCP5q+Xlvav70pGszRLIDIrnU9VXLFQQCa/XNEck2/YBfIZIb6t8lhTuBg6zfvdNTvZOs3g0lqJP/vqpj43iVkSg8VWUHkYxI/oyo9t/HTT7g/ZZF8jEOiY4Pcpvles4OW3+ns1nnOcy6o+cL8hmGOTamu1p73kggDG+yP5N0DUNEcvYiOXL0+1k8Rf6txfEtlkguB3c4ZLvnI5IbcX7DEwz070aUIcxlUxcYWtdeb9xnCR418PsecOz7ayLKY4RXmbA0IhmRPIe2YYvH2FUKrdZg1eUExEyHRMcpuV6E9c5hKMhmbcNWDWWKNNfe8fzuFa09r3KCm1/8H7ByRxWRHHfTbB1L6+tYy0kdi3aS7E4yOzPRW8UXyXHKZi7YhqMMYS6bN1UC6sEm1tJBRqKGVG1id8bxeQP3ke8z6BcikgshkiPjuqvpGmllsa21/iiH2hcvOyQ8Xsm9k6+yzTp3D9mxOy3ZfuBMhVrfbNeOgkNjnC5e1BrOTk5EsjkxMn87x/L4Fk0kv6JPdZzY7BN3I5Ib6Z+ulfxJwv5N1TVdAfSpbviSoSie9ibW0svNVNHo3NSNb++YtQzUMO/RV8kQyYhkI85HOTjDshPXzy1Rl+MEXmZPC0yN5/9yv/EQJcD40K2TeUtJk+Y4020x+vQzRLJrIlk7+zMM2t77Ru5y5UEkR9FXz5iJ+qitnrnd6ucRNURyI+vfhKXN3OcMjkEhgnz/N9GCwcy3/y+N27GRHATq5PUQRw6Bdjd0yPAnRDIieUFUTdXmH/Kfdo1e7OLYyecjuV+Qddi1GOfAWM6Q87tl/j9wJpK4GG0fWy3PFm20NCsOpmlBhkh2SyQb3zQLLnRyM9eGSI7q5f7b+fwBjX9rtzTj0LWASI76OKRQ99Ehy2/GaeY2yIP9mxCVPzAQEaG+VSU3RLI4z1Ci3n0QyYjkBVH3CprPeBpa/RCpu21uCLq5DXab3C/K5eBHDozlubkfx7Yxy7pnn+Ixu5ss4hs6VJD7d8UQyVHuBxN2N9UbEK7WMiI5cspKhvpylgPfhDOM5UNoDZF8LglBU92MfsD6oUx24u5Vg9fXvtX4mHavGEWyGMhDYTM/UUNaQSdPfcPIO6lqSCOSEcl9LER3Nf2gpXBry5NxrWMi5KFCLMx27iM2Hmbtyj28RIugONO9JGgWMwtHu88Hx/hw/x2R7KhINtfnckp9dUck+8H1hvryogOO+uOI5KbmfpvCbJA4vRGtrwEMmSffhs15Tf97cZLB7/9rTZfeM3NlRH2vDszWF6vtYGgMR+goIUQyIrmPj9NZMZzyM632qVTbg2zMNj4++hS0lsn42d5YSWVRHr2KfJa3HbPNT/VJr9U1Io4wkAsqItldkRyF2ibp7yephdO7JJKNbpLVNsnMZtXJiYmwy1YSydHJVZeBfr6lv8XQ1/t+e6/X3mxWb0jXBxtr8PBhYIx37TJDv//+bO1EVDIbQ0RyfJGcu8hcX2znXHhn27gv6TTzboVcP1OID1A13N6rBDdo4VMOr7PeVG1IV5I8JF4Axd8cLKf1sNVnVrWsfTG66Sz4SZ1mRHIaa/+QBH0tpTi+LoVbH27w3a1mZ7PGTsRdEskjtO9gdXNJf9NMjNk1qOH5/T59grywO/+d0pfYOd/fihiRmws/sPpF8z5grFxEbl1FrARr61wsZp7jMERyQ2vfwUZEshqjfDn+Kmuj6G46hr+9e42cfIwMLkhNJEiAYlGqfVPawEcOltP6jd3nDreOscA/2hL1kfMukivhVglOQb/ToiJ5W4O1pmfq2tVp0y42MuhgGhLJ4QAD/eiyXr/VZElF9f65KFRVSaGK+HEG6+jtjTnZliMZ87PJ/nYse1en2WUxwZAND83omzvI2BpsckO/yCJZVStp2YpBjS1O9nZfendGtnTw1K7bqSLqkOY7cq+D9viBDgG3+h4Gf82snAIiOYXdYSX6wn28SrBXg21/HY2S7vi6I5L711Yw5mBGc35n+vYaPGp4HUouksvi6tSTGMVB3f9UyUtN3SdNao9Gn23iMlr0zP62lLp2TE2YN581/olc3W1UkQPmN8j/nqA/txo8Tf5dumItOMTgON5ltm9FFsn62Vo0ga8vjncyVMwX/3XwNPkqFGOLoXbV3RPIUUIT++/gs7ksb4NILtL4uiOSo/48bfZdDk9Kby0L/2hhLTIhks/OzSmFScHjSkkonW9jgc2TacZK4yx8I/aO2CUl/eBK61GNiWyle0XpP/zLwjunEiBtkeB9O9Bof9LasCh1bSB/33Rz7194IiK5QaIIpBYtq6vKeDQfQjbJGySWtyxOjnVQnMySL+pmeK6t4qDLj5zJkyOjIjn8geUd2w2bXxdCoe8xI5IRyUUVyWVxqfnN1/CH9oVQcLqltSi5SK6ERxracBiUwkbDxobH75aMD0l2XWhCT3UP3wbqBFlFUiQfv0nSV7zIWBkfY+I/PMpibp1kuUhU+SazfZuko5Ksjqf4lr6Xbq7Pk40ngyuySC51fVUnHUw+7jOsR/xYWviHxnDqdrHap4HjV5a/Z4qD90BfMJYyHtymHPZ3UiCrJDXNln5o/tlPjdGvSguKOERyK4nkSFSYfp/VHeEjLI7hHyyuRQZEsrFyLtP0iYd9YXmr2U0Scbc3eNxK6X/f9An+rAY2cY60MIZDDNvhezpTsUruZfvb2BcqF4e+vhLDn07b91bXosz2a5r8mQdY2uDbWQtxs4cM15nvZ4FF8tCexYxF92ZxzcjAR/QkJ3dtzWbhNLlIXY33WnTnPNjPUYGsFtFfp+AIPhFjTdin9ewEkdxSIlmVGTJaxmWe9/pCnUzT2Nh1r6dLtdhdj5KL5GhMJxnbxFYnZVYPFYzdz5u71VIrnafyCjTr8JpKmBWVUrzHsk2+rO/s6m+45dJRujSYFDW+uFi2Yfav/Il/Gem32pRRa6L5/v3N66gtZWxsy+K8hjZymk3YpSLlEMlZHhpdli9HJAohmtW002E75DoKsZjlqFjZDg+2oEQf8nGO2t1kHfpi1YnqXD9Wtk3b6wEiGZGctUiOTjZusOrgq+Q0SRzNQZ1fkz/nLC1g7a9H7xjJEOuLJw326UF9f9HuJuLDlsbzn7Lv37PSZ12tQGcSj1sj+5xEv1+9fxXxXMrfS7X58pC+JqHL2AQ76dDsOElY1VWigWPX1HdwK+HP9TpQFq+mWPniE6MZ8f3wckv9fEOOzwmxN/zUJlc5ONSerVg64Cu+SD7R8Fxco5Nh5scZEcNTqdPWvFC+01GxMta6WIGs3oUHnT1FLodXpPDOnRdjYR/YoiIOkdxqIjkqjWZ78/Y1HbGkQpEX5Wyq+53VYFX9PY7Ko0xOcU0yI5KNJe+aK4Rd1fNWp7Mq74rK3rywa1IqnLApu6xtYsYh7rM9oJ1SNa9xUc/rj1lLZyBWId2moh3iOdjrLPTuc7ptanS/NXimHhp9i/znwX22KLnYE/qak+mw3yxLPprO1r+grbyp/RW1hi2qhrla46IIh2vqGw/2qoKojQ5EcozDk9q6FjaEAj3nKi+H2rha2OZws2u0BWFwbmahHwv/eO7irGDJqk4cuPUepNc+tl5bVd+r0s5As+L9YEQyIrklRHL0XXo8tWSRkSP7RCSAw2ul036GHpco/O2fdacyq/wdZkRyrJrszdxX1eJGhcM+Vg81nr+9ok8Gm7OBq1MY3yn1U/aL67VKd9UlMlW0jw6ZVRmUgw2j8Qu2qd+JPUH+vX6yPS/b+xb61Hx1k1Ltm7J/Ex3+tjrewnvtCLvgl6msYb4YH21IhAOi9yY8LcoUHwysv5NvWd50mq1Z/mLtW1V0kRz5x49Z/ZZEJfaeqK9586/RL8fepDOzOy4/dM1P8Ayjxbj7dpSedngBuwZPtiDokxiHP5TqZMT6plT4gxj9mrDInWJEMiK5WCJ5Fxx3gyJZ3+2UQjVbIfJSU32Oktl0ZdTfaXWHMqwnfkv5gEC0N/0+RdUiXuCdabqNslpT23aisVZJutsKIjnaqMtyHu/Pepcgzj2bs+xPjNEC4jZOlE/Am8051c5NM3E2mrOzrVJYA/rFcC4HtLCIQyS3okiO3pV/48AbEsnReJ6VsRP9eAzfZOeWnftmT96jw5jl9FrHe9Nom25dNKnwYxcryZi+z62uSFjVKS0gktW1FV90Z7fmpBC9vIhTpKNiXdJPpW+O70CWw5/g0eaUqFD6W44v8h3Wx0HdUYpCE5tcuGo7IJIRyS0nkqMEWVMRyYZEclS/dVyuRHIk7k9uwXl/LLboiE7gywjgBq5XpfVtVf5rscfyCOtj2AoiWa93wa9bVySrJBFx7rDYrpnsxjH/ohMCqJcE8kXbmGWzD/NroFWDLVI4RY7j7L2eWV1KRDIiOUuRHPXvJESywStX5jOo2hfJ0dpZaaE5/68+UUr+7vwBIdxn+0iKkT3TPSQzXjvZlfvcl6cyfq0iklWSNZ34rhVFcrTYV2OVLUjHYXra8RdyWkufquWNwZ1fiZXVvYh3kaN3P85mwbktLuIQya0skqMN3HZEstGTiv/lTiTrTNLi1haY738arUMdnWCGiOJ5WpiZUFKJrYolkK9Nb+xaRCTrA1WxW+uKZJWKO869iQHiG/Z3unKRLOVdz699B+/WcdTdKF88mwN7+jSd5Hhiu1j3fFRZAEQyIrmVRXIUPjosh07kZAPh4jZE8uYJavlmI5IVUWWA+4sr3oLrrbw/0bWFBxHHWtQ9LX3wjTNdc8vBXwsynjelq51aSCRHeuzq1hTJquZinBIwFXFRSjtdd+fg5ZymE3qAm7R3ryHn6MV8ZGRMoS5y9F79K0b//o2IQyS3vEies+mWJ6E8REc9Ja+p/I6VTbyyODB3IlmhsnRHpbkKlvRInJzCRu3xLZBAamE+9N/0RosTAij3odf90j9gbDGRHL2zQ1pPJEc7uXEuZr+VShkYVRMwHy/p+3JCf4yX6xiVYG2dbC4vNqSSaaUzJp/EWLCwb0QyIvmzvtZWj7XBnL4z/pzXb9QS9UR9PU6K5CxOtEyI5Dk+1J8Lcnr8pi4LmN7p1Ld0SHdrCeSRur61e77SL+ulxnJW6ik8NZvxakGRPOCN/9N5aVpOJA8IV4u3oxeelM5CGl6Xo9psv8HTdYTo/tO7OVrsT0xJiFwbo3+vObPrjUhGJLsgkuc4DS47+Tfq087o9Hszp0VyNP+n5VIkRyJj5xxtyPbWrtH2nM23+gfFDl3XbapXCS9IZV1KtmnxbE7Gc5RXDbfPblOhBUWyQtlvWt88Z0RytBM6MJaRpuE4DxLLGwgTSzf0A0GR8a6o+EXOPqDPpzMuo1fRmdldrI+OSIa8ieQ5682Zjq0n70mH/Mh5x7a2ifMiWTvqwQHy/ZiQO5GsiE7rr8nZvdiX5Jj/yJHTzENknx4omDieJdeHtszvHjdKR20pqQcudPxA4Trty2Rqqy0qkue8q1e1mkjePN5DhD9Pp3/isJwtjA/ru7CQ8gLf8wW9SZG7+0kplRMri7NjOsbLYVyIZETyIk/DHnIgvLq9VyGbF5GsiKLbyrkTybMpdX2vvlbMcjy0+kQdiu8a1eD79cor7+RYHL+lkx21i41yuRaXwq3lM9zl2JjeI8d0WzdEYouL5Mif3EVvsrWESI52w+MkyRqeXv/CoTlbJLuc2aFtBdROrR88msN7YANTGR8lGuKc0KgEI4BIRiQ3+gwnyfl9IYO15BGvVNuj737lSCTPOa3Yy5qjblMkz+tEDpK/b4ZD35wX9bUwF8Xx/ESZsH+fkwSus9v90m5P1yUnC7Emi70dEMt36SgDp/xNRLJGrSMV8Vu5prxafJFc6tox1oNUw33TcfLFRrr8VB6zGGZ116dlnGudfO7DHO42j00lWVe0CRavJmKp9k0MLNFGYm/tMQazV4fsYkPjO91rG7NsZs/RMeKLUfST3rT72OIG28RIhAU7NfB9N3EneZpO/Je6XUiBXxaX1h2x6Ya+y8+l1//u9bQj6QfPxLzukrTVovrewZ65EMd9+X8VcWw9w27o0Cn9eNmekO/Fr3ITUh1PH3yvns+kltI1AKGjAtWJtps+5zaGNuu2LIR9dExcRiek88PbDdrIXS46gc/FmOQXUutfXlPVq497OdwdL9gw1c71dQhOXkOyVOmT1BYwMSlGH/+Jkc0j4iqyfVTPkRC3fSTXsTsYzN7GN/xD3flNMr4f6igeVzYmlXOpEvZUgvvMbOQpYRwM1qKrmSs9UVKeyXWRFmdcVebbTs8fs1a2Pkq4lRYkfnBlFNkRPl3PuPqurhDQ2LPMlP+/e7Oxh9q363fYy1ZOX6I2RYf+qw169Y3JcsPIBjphXrCTbL+LSnBpG3grtQhB7XOEl8vx/Vnmd2PTRtlSOThUvoM3WEjy9ZS+b6xsVvksTm+Yy3Uoug4Qdz2dEn0PapsU0kZUNRRfnBvlu1KbxTosu7uJ8Zopf4bv4MQH+zt9Nzm6czost6LIDwfo+1aQDBXK5Itzcl5nsSPFza84iYVm6dMnmMPA8Svrk3UlFOK2am3dlnOsGheUy8m2QaLxHSC+ocWji8kTVd/Uad5skaQiCqIyUl1a/KrrEPpKhBLC2hkfUf87N2lhqO7jqdJTsb6d6nRbjo8uARdjXMvhOnpch/Ys5tYJhvQJdMZV2UcVCt7Q83Sv50Q4rBZ76pRcV2I4S2cjj05Kh9fnvjaPXUTXZZQYHKcrDkR/56F6SPcl8uccpU+4VJhyK6FsQPlV1WAL/X6pOs++uKy+qTmk7jOOqI/Z+Pp94QkLjGv05+v676pw/Oh6TT9dZkj93GrnptJ2VmShni2Ghi2uT/jVNQ9tv9K/ja5Fjog21OZe07TdvhWVwNL//eFoXZNroTpAUuVez+n5fG6eXUVkJFlP1TuqvgdqXW4JWxn3Jb3mNjxeao0et5KbRq+yVsfJdF3qWjIlR2qDXNZzm/ck4Hep1JkuKtGJU54zXr6dmlAqdX011iky92YB0nMgtMCXjr5qA8euyfcBdGUPZQuz7UI1tVFRlPuuWaDGTo3h3GOqE8XVVpcie1UGyJjfseQ8tqvGV417noQwQK+o0hHxxN8xqfVRJZ7If2mATp1dkszBMeY/+FGu574qdktvQyG4PmYo+LYYGgAAAACAIko6MjpWcog074FFYTRFqKM3ip3hJonCrSfndL6vSW2cdPhhrHuQD2JkAAAAAABzo++2xLpze3lqfVThqipsNf8ieWzhEmuks0nyWA7n+tmUx+iWmHWbd8DAAAAAAAAWcLB1xsBmHeyPU81+qZz53Ivk4HqMLc7ci4tyNteTU60x6otd44VZBzdjXAAAAAAAvTvZezuftVdRDs7IuVA+AmOLM+9il3zVyw72T/n9HR7vvnTn+hgXAAAAAEDfjvbDMU9H90y3n7oEQh4F8jRdUgaaR5fPyEm4vaqTmu4GQtzEdjdhWAAAAAAACyMqmD0rhrP9eqqp3lW6+bgnZ9m2FzGyRJs49zg/x+XgjnQ3D1S5BV3kvtm+fqBLNgAAAAAAwKKESDAwpkA4J91+1lbXSbByFYIr2jCwRCL5ZMfneJjXPurLKY9JR8y+/h6DAgAAAABohKiMzAcxnO7pXrVz05QF/U7y936UI6F8GAaWaGPkOw7P7Xupn8zGv6cdeP1GLYFBAQAAAAA0LEbEWTGd76dS72s5OCAnAvlDr717DYwr0QaOCrPvcnBup3h+sE3KY7GcFruxQsLDgzEmAAAAAIDmxciImILh+PSFcnhqDpI5DcWwjGzg/NvBMPofZ2Dz/WP2936MCAAAAAAgDlWxW0wnfEYmGZxVRmGnEzqJ8zAqE/MsznSs1NMhGdj6D2O/m373ehgRAAAAAEBc4icFejaT/pbDK9wVyeFPMCgTNlnbxKGNj9+kL5AnLB07zNoXl2BAAAAAAABJGDh+ZelYv5uLbNefCeXgrw6K5Ene4HErYVAG6On5nOcHb2Y/p+EfstkkiF0j/GVvaM9iGBAAAAAAQFIq4QmxhUQ13D4jIXG5YyL5YQzJ5EZI7Pu4plo25ZMq4mcJTr23xXAAAAAAAIyJkuCOmM75OG+QWD6jPjt0ohyejxEZFckHt9wJcll8S/7+j2P2+0aMBgAAAADAJP6YtaSjPS2mg35Ldv125kR5V4zIICoxnC9mZjCPp2S3MSBeiNnnTm/AG/+H0QAAAAAAmKYifpGg/NEfs+t35lmvx3vto76MARlE30sWLxY+i/Ucgfz3BP3eGYMBAAAAALDnrN8Z21kvhVtn1m8/PClDkdyB4diYU1FOaf6m6rvA2b1zhyfo+zUYCgAAAACATUpdy0mnfUJMh73bqwarZiiU90lwpzOfIbqFFsnhQSnMXeBVwq2ye8Zgc9mHT2Im6noBIwEAAAAASINycEAC0fHfTMvQqLvBKplYegL5Uyl0tsFobMxlbXU5vh9ZnLsR+u5zlhtSvhgZs+8zpbjfGCMBAAAAAEhNoAQXxhcfwcBM+17q+qoUEENTEsmjvHN6Po/BWNv0eNLSvFWlnSyZ2XNFd64fjn8PWRyLcQAAAAAApIk6DfbDl3KZyEvRMeKLsh83pVAu6DaMxapIvsTCvJ3rwHP1S9D/WzEMAAAAAIBMHPnu9aRDPilB1t39M3+GcnhqFBJtTSifjKHYtMFgT4NzNcUJm6yIM2M/Q1m8qjeAAAAAAAAgM5H5kwSiZIZXDbfP/BlKXTvqWrJWRHJtE4zEIgPHryzH+R0DJ/5POzFX5eDQBM/xsU70BQAAAAAAGaPCU+M79u85IU7611bwyqJkONT6Ja9t2OIYiHX7eyTRPJXDK5x4jrLYJeFzHIwxAAAAAAC4I1T+mcDBf8MbEK7mxnMEx5g5mdQJyq7HMFKxvctiJ1Xzxd5OPEM12EKHe2NrAAAAAAAFQZ2YKrGbRCirrNMuUAnWlv25P7FIroRHYhgpEIXLN5v92dclllygHK4j+zQ+/glycAdGAAAAAADgIqoua6JT2PDpTMvuzI8f/Fr2a3LM55muE5tBCnY3YekmEsiNdioseYD4hrSzNxNsxgRe25hlMQIAAAAAAFepit0SnsDe49Tz+GPWihlK/jzGkOY8hbcvYj4+lX/nWm+QWN6ZPkcnyEGCd+Vdr9S1AZMPAAAAAOC8YBHHJxbKLp0oa0EjDpT9eqWJ8lY3YAip2twpi4hQ2NGp/lZr68q+jUzwjnzqRGZ4AAAAAABoWFSenew+r7jbuWfqmLiMFFzn6xO8Rff/ZxhBipTCrXuZh26vHJ7oXIbx6M57kCyTtTicSQcAAAAAyBu+uDHhifLDug6ua0SngNWF1n9WYdqQokjuWlKO+1v18Z/q+cGVnt+9onvvRPd69azaSTaQzmTCAQAAAAByK5TD2xIK5eHOZL2en0q4lezfv3vJaj2Uic/C1oLBXiW4T29iuEi0uRIkfB8uY6IBAAAAAPLM0J7FpFC+N6EweF2HqLorzvb0yuLOufp7MROfAR21pZztW1SmKkz4HlSYZAAAAACAIhDVUH4+oUAYq++dukwl2Ev28zGvHPyISYc5Arm2h7SLTxKGWLczkAAAAAAARULdLVah08mE8iQEKOQKPzg6Kj/FCTIAAAAAAMxPZfQqXlm8kFAwqPJKv2QwwXnK4rzEtq4SxAEAAAAAQIFRGYdNCGVfXMJggpN09HxBJxFLbuOcIAMAAAAAtASDO78iBcCLBkTEP73KhKUZUHDMtu9HIAMAAAAAQHP0r60ghcATBsTEa16l9l0GFDLHD3bSCeYSXycQPoMJAAAAANCKdIz4oueHtxsQytNk+ykDCplRCU43kKBLtnAAgwkAAAAA0Mr09HxOioNbDQhl2YIrGVBIFR0REQw0Yr/l4K8MKAAAAAAARPjiMiNCoxLc55W6vs6AgnVKXZsZuluv2lkMKAAAAAAAzEtFnGlIcEyR7TAGFKzhB78zE14tpnuV8OcMKAAAAAAA9CU+jpbCYZYZsRwO8EpdyzGoYAwVpaCyqpvZzJnklcUuDCoAAAAAACxKKG8jBUSnISHS6VXEzxhUSEwlPFLa02RDdvm8549Zi0EFAAAAAIDGGCC+4ZXFC4YEibqrfINOsgTQLIM6v6bLMpmzxfu8QWJ5BhYAAAAAAJqj36gljGUOjsKvBaWioCnK4YnSZt41Z4PBhQwqAAAAAAAkww9PMydStFge5FWCtRlY6JNS7dteRdxt0O7e98ricAYWAAAAAAAMCeVgJylaxhgULVO8cvAnb2jPYgwuzBHHXctJ27hYtpkGbW2YFN3fZHABAAAAAMCwUK6t7vnhvWZPlYNn5M/ch8EFaQ9HGN6IIcM6AAAAAACkQEX8xVyZqM/EzL1eNdyewW1Fewr2kjbwrFl7UrW6g6MZXAAAAAAASAdVX9YXIw0LG3WyfL1XCTdmgFsAP9jc88PbzNuQKu8kfzYAAAAAAECqDHjj/6QgucmCyPlIiqdrvYFj12SQCyqOo5JOnxi2GxXdcA4DDAAAAAAA2VIRP5PiJLQglidr0VMO12GQC0A12ELO540W7ESF678k/9yVQQYAAAAAADcYPG4lewJIZcIO++uyQJA//GAbryLaLZwc9+ifWREXeW3DFmegAQAAAADAPdSpclm8akksz6yH6XJimA9xvJ/nh7dbsoUeaQvPeZXaDgw0AAAAAAC4TcfEZaRQvloKmY+tCaSyeNwrhwd7fveKDLhLmySjV5Hzc4qcnxeszb0vpnrl4Ayvo+cLDDgAAAAAAOSHUtf3pKB52KJYUndRhRRk53l+bRMGPEPKYls5F5fLORlndb4r4l9etXNTBhwAAAAAAHIsoMKjpMDptiuWxTQp1P4j/zzCGxCuxqCnsgnyda8SniDH/CnzdbMXKA32jFcN92XQAQAAAACgGAwSy3t+eH5U3smqWFbtbdn+oe/EDu1ZjME3iC77FRyjE6n5YnoKc9kt7eY075yezzP4AAAAAABQPKq1db2KaLOU6bi3E8g3pcga4JXFLl6p66tMQAz8MWvJMdzHKwc3yzHtSmfexHv6Xvvgzq8wAQAAAAAA0AJiOdy+Lrp6UmzjtGD2g6O9QZ1fYxIWNj+d68vxOlm2qhasac6TymDeLjZiEgAAAAAAoPUoBz+Swuj+lMXy7JDsx7xKeIFX6trRqwartvQ8VIK1ZdtZjsllsr2oa1OnOx8qDL8i52IzXgoAAAAAAIBy+BOvIu7OQCzPLik1Qf45xPODC3WCqIFj1yz0eKuwd11CSz6vLx7QZZWyG/uSbFvyEgAAAAAAACwg3oLvS+F0S3p3lvu8yzzR88OX6uHGx0tB+QMtLEtdS+ZqPNtHfVn2eQN9J1vVL/ZFh2yvy/ZutuMrJumwaj/YHKMHAAAAAABYFFGN5X6yfZCxmJu7qWzOw71ycIf88xopnE/Vp86VcKvMw7Xbu9fwKrXvSjF8oGxnSwH6Nyny760L4lkOjWG37NtFOrwbAAAAAAAAmkSFPfvi3ChLtTNCrzfx/JZsI+s1gztkf6+XYvU8KQiP1XWiq2I3+e+20U2FFqvEYQPEN3ptSkDqP6X4nv3/0dml5c+pBL/SIrMcXif/3e3ydz0b/V518p1Kea24bbjs70leZfQqGDUAAAAAAEBS2oYtHt2hDW9zWAg206bUT8l7a+9nekfYXPtQtrJse2PAAAAAAAAAtijVvi3F8uVSfI0oiGAuWnve84M/U2YLAAAAAAAgbSrB/rLdIIXZZMRpxneN1caFCisHAAAAAACAjCl1fdUrB4dGZZzEOERrGi0UOvy9In7s+d0rYoQAAAAAAAAuMrjzK14lOKR+H/YtxKzhE+OyuFSK44O8UtdyGBsAAAAAAECuBPO4lbxSbQ8p7m6M7sqKmQjdpppKJPakVwmu0iWm+tdWwKgAAAAAAACKQqlrM88PjvHKYX8p/rocqyHsQpvp+eFLXllc7VXCn3t+93oYDQAAAAAAQCvQPurLkWgOT5LisFqvcfx+a4liVV85eFT+801SFB/plWrflGOyJMYBAAAAAAAAnletretVgr2kaDy+fqd5WL2mcd4F8aeyvSvbf3U28HJ4ohTHe3p+bXUmHQAAAAAAABqjbdji+l5zOfyBFJVHS5F5sc7oXBaPy//9Zv3OrktiWJXCekO2B2X/BnuV8AKdxKwSbuUNEst7HT1fYFIBAAAAAADAPB21pfTJczX4vhTRP5HtKClG/6jv8/qiIsX0vfLPZ2V7sX6KOyVBG+9VxHP1nzdE/o6SzjJdEWdGmbyDPb1SuLVX6vo64dIAAAAAAJA1/w92cfGp9yanQgAAAABJRU5ErkJggg==;" vertex="1" parent="OKhfb2b17zBWEA9jVU_0-19">
          <mxGeometry x="24.818181818181827" y="50" width="154.0090909090909" height="45.45454545454545" as="geometry" />
        </mxCell>
        <mxCell id="OKhfb2b17zBWEA9jVU_0-28" style="edgeStyle=orthogonalEdgeStyle;rounded=0;orthogonalLoop=1;jettySize=auto;html=1;exitX=0.5;exitY=1;exitDx=0;exitDy=0;exitPerimeter=0;entryX=0.5;entryY=0;entryDx=0;entryDy=0;fontSize=14;strokeWidth=3;gradientColor=#ffa500;fillColor=#ffcd28;strokeColor=#d79b00;" edge="1" parent="1" source="OKhfb2b17zBWEA9jVU_0-20" target="OKhfb2b17zBWEA9jVU_0-16">
          <mxGeometry relative="1" as="geometry" />
        </mxCell>
        <mxCell id="OKhfb2b17zBWEA9jVU_0-29" style="edgeStyle=orthogonalEdgeStyle;rounded=0;orthogonalLoop=1;jettySize=auto;html=1;exitX=0.5;exitY=0;exitDx=0;exitDy=0;exitPerimeter=0;entryX=0.5;entryY=1;entryDx=0;entryDy=0;fontSize=14;strokeWidth=3;gradientColor=#ffa500;fillColor=#ffcd28;strokeColor=#d79b00;" edge="1" parent="1" source="OKhfb2b17zBWEA9jVU_0-20" target="OKhfb2b17zBWEA9jVU_0-1">
          <mxGeometry relative="1" as="geometry" />
        </mxCell>
        <mxCell id="OKhfb2b17zBWEA9jVU_0-20" value="VPC Peering" style="outlineConnect=0;dashed=0;verticalLabelPosition=bottom;verticalAlign=top;align=center;html=1;shape=mxgraph.aws3.vpc_peering;fillColor=#F58534;gradientColor=none;" vertex="1" parent="1">
          <mxGeometry x="162" y="270" width="36" height="32" as="geometry" />
        </mxCell>
        <mxCell id="OKhfb2b17zBWEA9jVU_0-21" value="" style="outlineConnect=0;dashed=0;verticalLabelPosition=bottom;verticalAlign=top;align=center;html=1;shape=mxgraph.aws3.cloud_2;fillColor=#F58534;gradientColor=none;" vertex="1" parent="1">
          <mxGeometry x="100" y="378" width="48" height="44" as="geometry" />
        </mxCell>
        <mxCell id="OKhfb2b17zBWEA9jVU_0-22" value="QBE AWS Account" style="text;html=1;fillColor=none;align=center;verticalAlign=middle;whiteSpace=wrap;rounded=0;fontSize=14;fontStyle=1;strokeColor=#FFB570;" vertex="1" parent="1">
          <mxGeometry x="148" y="380" width="90" height="40" as="geometry" />
        </mxCell>
        <mxCell id="OKhfb2b17zBWEA9jVU_0-26" style="edgeStyle=orthogonalEdgeStyle;rounded=0;orthogonalLoop=1;jettySize=auto;html=1;exitX=0.5;exitY=1;exitDx=0;exitDy=0;exitPerimeter=0;entryX=0.5;entryY=0;entryDx=0;entryDy=0;fontSize=14;strokeWidth=3;fillColor=#ffcd28;strokeColor=#d79b00;gradientColor=#ffa500;" edge="1" parent="1" source="OKhfb2b17zBWEA9jVU_0-23" target="OKhfb2b17zBWEA9jVU_0-8">
          <mxGeometry relative="1" as="geometry" />
        </mxCell>
        <mxCell id="OKhfb2b17zBWEA9jVU_0-27" style="edgeStyle=orthogonalEdgeStyle;rounded=0;orthogonalLoop=1;jettySize=auto;html=1;exitX=0.5;exitY=0;exitDx=0;exitDy=0;exitPerimeter=0;entryX=0.5;entryY=1;entryDx=0;entryDy=0;fontSize=14;strokeWidth=3;fillColor=#ffcd28;strokeColor=#d79b00;gradientColor=#ffa500;" edge="1" parent="1" source="OKhfb2b17zBWEA9jVU_0-23" target="OKhfb2b17zBWEA9jVU_0-16">
          <mxGeometry relative="1" as="geometry" />
        </mxCell>
        <mxCell id="OKhfb2b17zBWEA9jVU_0-23" value="VPC Peering" style="outlineConnect=0;dashed=0;verticalLabelPosition=bottom;verticalAlign=top;align=center;html=1;shape=mxgraph.aws3.vpc_peering;fillColor=#F58534;gradientColor=none;" vertex="1" parent="1">
          <mxGeometry x="162" y="485" width="36" height="32" as="geometry" />
        </mxCell>
        <mxCell id="OKhfb2b17zBWEA9jVU_0-32" value="QBE Corporate data center" style="points=[[0,0],[0.25,0],[0.5,0],[0.75,0],[1,0],[1,0.25],[1,0.5],[1,0.75],[1,1],[0.75,1],[0.5,1],[0.25,1],[0,1],[0,0.75],[0,0.5],[0,0.25]];outlineConnect=0;gradientColor=none;html=1;whiteSpace=wrap;fontSize=12;fontStyle=0;shape=mxgraph.aws4.group;grIcon=mxgraph.aws4.group_corporate_data_center;strokeColor=#5A6C86;fillColor=none;verticalAlign=top;align=left;spacingLeft=30;fontColor=#5A6C86;dashed=0;" vertex="1" parent="1">
          <mxGeometry x="630" y="290" width="190" height="200" as="geometry" />
        </mxCell>
        <mxCell id="OKhfb2b17zBWEA9jVU_0-39" style="edgeStyle=orthogonalEdgeStyle;rounded=0;orthogonalLoop=1;jettySize=auto;html=1;exitX=0;exitY=0.5;exitDx=0;exitDy=0;strokeWidth=3;fontSize=14;startArrow=classic;startFill=1;dashed=1;dashPattern=1 1;" edge="1" parent="1" source="OKhfb2b17zBWEA9jVU_0-33">
          <mxGeometry relative="1" as="geometry">
            <mxPoint x="440" y="400" as="targetPoint" />
          </mxGeometry>
        </mxCell>
        <mxCell id="OKhfb2b17zBWEA9jVU_0-33" value="" style="aspect=fixed;perimeter=ellipsePerimeter;html=1;align=center;shadow=0;dashed=0;spacingTop=3;image;image=img/lib/active_directory/firewall.svg;strokeColor=#FFB570;fillColor=#003366;fontSize=14;" vertex="1" parent="1">
          <mxGeometry x="610" y="375" width="30.5" height="50" as="geometry" />
        </mxCell>
        <mxCell id="OKhfb2b17zBWEA9jVU_0-34" value="" style="shape=image;html=1;verticalAlign=top;verticalLabelPosition=bottom;labelBackgroundColor=#ffffff;imageAspect=0;aspect=fixed;image=https://cdn1.iconfinder.com/data/icons/software-engineering-and-video-gaming/512/508_Center_centre_data_database_server_Hardware_Engineering_Internet-128.png;strokeColor=#FFB570;fillColor=#003366;fontSize=14;" vertex="1" parent="1">
          <mxGeometry x="661" y="336" width="128" height="128" as="geometry" />
        </mxCell>
        <mxCell id="OKhfb2b17zBWEA9jVU_0-35" value="WAN" style="aspect=fixed;html=1;points=[];align=center;image;fontSize=12;image=img/lib/mscae/Virtual_WANs.svg;strokeColor=#FFB570;fillColor=#003366;" vertex="1" parent="1">
          <mxGeometry x="490" y="375" width="50" height="50" as="geometry" />
        </mxCell>
        <mxCell id="OKhfb2b17zBWEA9jVU_0-37" style="edgeStyle=orthogonalEdgeStyle;rounded=0;orthogonalLoop=1;jettySize=auto;html=1;entryX=1;entryY=0.5;entryDx=0;entryDy=0;strokeWidth=3;fontSize=14;startArrow=classic;startFill=1;" edge="1" parent="1" source="OKhfb2b17zBWEA9jVU_0-36" target="OKhfb2b17zBWEA9jVU_0-22">
          <mxGeometry relative="1" as="geometry" />
        </mxCell>
        <mxCell id="OKhfb2b17zBWEA9jVU_0-43" value="802.1q &lt;br&gt;VLAN" style="edgeLabel;html=1;align=center;verticalAlign=middle;resizable=0;points=[];fontSize=14;labelBackgroundColor=none;fontStyle=1" vertex="1" connectable="0" parent="OKhfb2b17zBWEA9jVU_0-37">
          <mxGeometry x="-0.082" y="-3" relative="1" as="geometry">
            <mxPoint as="offset" />
          </mxGeometry>
        </mxCell>
        <mxCell id="OKhfb2b17zBWEA9jVU_0-36" value="AWS Direct Connect" style="points=[[0,0,0],[0.25,0,0],[0.5,0,0],[0.75,0,0],[1,0,0],[0,1,0],[0.25,1,0],[0.5,1,0],[0.75,1,0],[1,1,0],[0,0.25,0],[0,0.5,0],[0,0.75,0],[1,0.25,0],[1,0.5,0],[1,0.75,0]];outlineConnect=0;fontColor=#232F3E;gradientColor=#945DF2;gradientDirection=north;fillColor=#5A30B5;strokeColor=#ffffff;dashed=0;verticalLabelPosition=bottom;verticalAlign=top;align=center;html=1;fontSize=12;fontStyle=1;aspect=fixed;shape=mxgraph.aws4.resourceIcon;resIcon=mxgraph.aws4.direct_connect;" vertex="1" parent="1">
          <mxGeometry x="360" y="361" width="78" height="78" as="geometry" />
        </mxCell>
      </root>
    </mxGraphModel>
  </diagram>
</mxfile>
